<svg width="133" height="60" viewBox="-4 0 133 60" fill="none" xmlns="http://www.w3.org/2000/svg">
<path d="M41.0733 55.9387L39.301 57.1309L40.1744 55.1889L50.8065 31.5473L51.1369 30.8127L51.7564 31.3294L62.7001 40.4575L63.3196 40.9742L62.6492 41.4252L41.0733 55.9387Z" fill="#4369AC" stroke="#F3F3F3" stroke-width="1.21737"/>
<path d="M62.2531 35.6825C65.3759 35.6825 67.9137 33.1651 67.9137 30.0521C67.9137 26.939 65.3759 24.4216 62.2531 24.4216C59.1303 24.4216 56.5925 26.939 56.5925 30.0521C56.5925 33.1651 59.1303 35.6825 62.2531 35.6825Z" fill="#4F4E4C" stroke="#F3F3F3" stroke-width="1.21737"/>
<path d="M83.3466 4.06132L85.1189 2.86912L84.2455 4.81114L73.6134 28.4527L73.283 29.1873L72.6635 28.6706L61.7198 19.5425L61.1003 19.0258L61.7707 18.5748L83.3466 4.06132Z" fill="#C80002" stroke="#F3F3F3" stroke-width="1.21737"/>
<ellipse cx="78.7688" cy="27.5924" rx="3.09301" ry="2.56214" fill="#F3F3F3"/>
<mask id="path-5-outside-1_1373_1042" maskUnits="userSpaceOnUse" x="69.0781" y="18.085" width="53" height="23" fill="black">
<rect fill="white" x="69.0781" y="18.085" width="53" height="23"/>
<path d="M70.7271 39.085V20.113H78.2121C79.6449 20.113 80.8677 20.3693 81.8805 20.8819C82.8995 21.3883 83.6746 22.1078 84.2057 23.0403C84.743 23.9667 85.0116 25.0567 85.0116 26.3104C85.0116 27.5702 84.7399 28.6541 84.1964 29.5619C83.6529 30.4636 82.8655 31.1553 81.8342 31.637C80.809 32.1187 79.5677 32.3595 78.1102 32.3595H73.0986V29.1358H77.4617C78.2275 29.1358 78.8636 29.0308 79.37 28.8208C79.8765 28.6109 80.2532 28.2959 80.5002 27.8759C80.7534 27.456 80.88 26.9341 80.88 26.3104C80.88 25.6804 80.7534 25.1493 80.5002 24.717C80.2532 24.2847 79.8734 23.9574 79.3608 23.7351C78.8544 23.5066 78.2152 23.3923 77.4432 23.3923H74.7382V39.085H70.7271ZM80.9727 30.4512L85.6879 39.085H81.2598L76.6465 30.4512H80.9727ZM98.2605 20.113H102.272V32.4337C102.272 33.817 101.941 35.0275 101.28 36.065C100.626 37.1025 99.7087 37.9116 98.5291 38.4921C97.3496 39.0664 95.9755 39.3536 94.4068 39.3536C92.832 39.3536 91.4548 39.0664 90.2752 38.4921C89.0957 37.9116 88.1785 37.1025 87.5239 36.065C86.8693 35.0275 86.542 33.817 86.542 32.4337V20.113H90.5531V32.0909C90.5531 32.8135 90.7106 33.4557 91.0256 34.0177C91.3467 34.5797 91.7975 35.0213 92.3781 35.3424C92.9586 35.6636 93.6348 35.8242 94.4068 35.8242C95.185 35.8242 95.8612 35.6636 96.4356 35.3424C97.0161 35.0213 97.4638 34.5797 97.7788 34.0177C98.0999 33.4557 98.2605 32.8135 98.2605 32.0909V20.113ZM120.136 20.113V39.085H116.672L108.418 27.1441H108.279V39.085H104.268V20.113H107.788L115.977 32.0446H116.144V20.113H120.136Z"/>
</mask>
<path d="M70.7271 39.085V20.113H78.2121C79.6449 20.113 80.8677 20.3693 81.8805 20.8819C82.8995 21.3883 83.6746 22.1078 84.2057 23.0403C84.743 23.9667 85.0116 25.0567 85.0116 26.3104C85.0116 27.5702 84.7399 28.6541 84.1964 29.5619C83.6529 30.4636 82.8655 31.1553 81.8342 31.637C80.809 32.1187 79.5677 32.3595 78.1102 32.3595H73.0986V29.1358H77.4617C78.2275 29.1358 78.8636 29.0308 79.37 28.8208C79.8765 28.6109 80.2532 28.2959 80.5002 27.8759C80.7534 27.456 80.88 26.9341 80.88 26.3104C80.88 25.6804 80.7534 25.1493 80.5002 24.717C80.2532 24.2847 79.8734 23.9574 79.3608 23.7351C78.8544 23.5066 78.2152 23.3923 77.4432 23.3923H74.7382V39.085H70.7271ZM80.9727 30.4512L85.6879 39.085H81.2598L76.6465 30.4512H80.9727ZM98.2605 20.113H102.272V32.4337C102.272 33.817 101.941 35.0275 101.28 36.065C100.626 37.1025 99.7087 37.9116 98.5291 38.4921C97.3496 39.0664 95.9755 39.3536 94.4068 39.3536C92.832 39.3536 91.4548 39.0664 90.2752 38.4921C89.0957 37.9116 88.1785 37.1025 87.5239 36.065C86.8693 35.0275 86.542 33.817 86.542 32.4337V20.113H90.5531V32.0909C90.5531 32.8135 90.7106 33.4557 91.0256 34.0177C91.3467 34.5797 91.7975 35.0213 92.3781 35.3424C92.9586 35.6636 93.6348 35.8242 94.4068 35.8242C95.185 35.8242 95.8612 35.6636 96.4356 35.3424C97.0161 35.0213 97.4638 34.5797 97.7788 34.0177C98.0999 33.4557 98.2605 32.8135 98.2605 32.0909V20.113ZM120.136 20.113V39.085H116.672L108.418 27.1441H108.279V39.085H104.268V20.113H107.788L115.977 32.0446H116.144V20.113H120.136Z" fill="#4F4E4C"/>
<path d="M70.7271 39.085H69.5097V40.3023H70.7271V39.085ZM70.7271 20.113V18.8956H69.5097V20.113H70.7271ZM81.8805 20.8819L81.3308 21.9681L81.3387 21.972L81.8805 20.8819ZM84.2057 23.0403L83.1478 23.6428L83.1526 23.6511L84.2057 23.0403ZM84.1964 29.5619L85.239 30.1904L85.2409 30.1872L84.1964 29.5619ZM81.8342 31.637L81.319 30.534L81.3165 30.5352L81.8342 31.637ZM73.0986 32.3595H71.8812V33.5769H73.0986V32.3595ZM73.0986 29.1358V27.9184H71.8812V29.1358H73.0986ZM79.37 28.8208L79.8363 29.9454L79.8363 29.9454L79.37 28.8208ZM80.5002 27.8759L79.4576 27.2473L79.4509 27.2587L80.5002 27.8759ZM80.5002 24.717L79.4432 25.321L79.4498 25.3323L80.5002 24.717ZM79.3608 23.7351L78.8601 24.8447L78.8682 24.8484L78.8764 24.8519L79.3608 23.7351ZM74.7382 23.3923V22.175H73.5209V23.3923H74.7382ZM74.7382 39.085V40.3023H75.9556V39.085H74.7382ZM80.9727 30.4512L82.0411 29.8677L81.6949 29.2339H80.9727V30.4512ZM85.6879 39.085V40.3023H87.7398L86.7563 38.5015L85.6879 39.085ZM81.2598 39.085L80.1861 39.6587L80.5301 40.3023H81.2598V39.085ZM76.6465 30.4512V29.2339H74.6158L75.5728 31.0249L76.6465 30.4512ZM71.9444 39.085V20.113H69.5097V39.085H71.9444ZM70.7271 21.3304H78.2121V18.8956H70.7271V21.3304ZM78.2121 21.3304C79.5027 21.3304 80.5271 21.5613 81.3308 21.9681L82.4302 19.7957C81.2082 19.1772 79.7871 18.8956 78.2121 18.8956V21.3304ZM81.3387 21.972C82.1548 22.3776 82.7438 22.9334 83.1478 23.6428L85.2635 22.4378C84.6053 21.2821 83.6442 20.399 82.4223 19.7917L81.3387 21.972ZM83.1526 23.6511C83.5651 24.3624 83.7942 25.2343 83.7942 26.3104H86.229C86.229 24.8791 85.9208 23.571 85.2587 22.4295L83.1526 23.6511ZM83.7942 26.3104C83.7942 27.3923 83.5623 28.251 83.1519 28.9366L85.2409 30.1872C85.9174 29.0572 86.229 27.7482 86.229 26.3104H83.7942ZM83.1538 28.9335C82.7453 29.6112 82.15 30.1459 81.319 30.534L82.3493 32.74C83.5811 32.1647 84.5606 31.316 85.239 30.1904L83.1538 28.9335ZM81.3165 30.5352C80.4927 30.9222 79.4382 31.1422 78.1102 31.1422V33.5769C79.6972 33.5769 81.1253 33.3151 82.3519 32.7388L81.3165 30.5352ZM78.1102 31.1422H73.0986V33.5769H78.1102V31.1422ZM74.3159 32.3595V29.1358H71.8812V32.3595H74.3159ZM73.0986 30.3532H77.4617V27.9184H73.0986V30.3532ZM77.4617 30.3532C78.3285 30.3532 79.1359 30.2358 79.8363 29.9454L78.9038 27.6963C78.5914 27.8258 78.1266 27.9184 77.4617 27.9184V30.3532ZM79.8363 29.9454C80.5549 29.6474 81.1518 29.1693 81.5495 28.4932L79.4509 27.2587C79.3546 27.4225 79.198 27.5743 78.9038 27.6963L79.8363 29.9454ZM81.5427 28.5045C81.9376 27.8497 82.0974 27.0962 82.0974 26.3104H79.6627C79.6627 26.772 79.5693 27.0623 79.4577 27.2474L81.5427 28.5045ZM82.0974 26.3104C82.0974 25.5191 81.938 24.763 81.5507 24.1018L79.4498 25.3323C79.5689 25.5357 79.6627 25.8418 79.6627 26.3104H82.0974ZM81.5572 24.113C81.1639 23.4248 80.5681 22.9318 79.8452 22.6182L78.8764 24.8519C79.1786 24.983 79.3425 25.1446 79.4432 25.321L81.5572 24.113ZM79.8615 22.6254C79.149 22.3039 78.3249 22.175 77.4432 22.175V24.6097C78.1055 24.6097 78.5598 24.7092 78.8601 24.8447L79.8615 22.6254ZM77.4432 22.175H74.7382V24.6097H77.4432V22.175ZM73.5209 23.3923V39.085H75.9556V23.3923H73.5209ZM74.7382 37.8676H70.7271V40.3023H74.7382V37.8676ZM79.9042 31.0347L84.6194 39.6685L86.7563 38.5015L82.0411 29.8677L79.9042 31.0347ZM85.6879 37.8676H81.2598V40.3023H85.6879V37.8676ZM82.3335 38.5112L77.7202 29.8775L75.5728 31.0249L80.1861 39.6587L82.3335 38.5112ZM76.6465 31.6686H80.9727V29.2339H76.6465V31.6686ZM98.2605 20.113V18.8956H97.0431V20.113H98.2605ZM102.272 20.113H103.489V18.8956H102.272V20.113ZM101.28 36.065L100.254 35.411L100.251 35.4154L101.28 36.065ZM98.5291 38.4921L99.0621 39.5866L99.0667 39.5843L98.5291 38.4921ZM90.2752 38.4921L89.7377 39.5844L89.7423 39.5866L90.2752 38.4921ZM87.5239 36.065L86.4944 36.7146L86.4944 36.7146L87.5239 36.065ZM86.542 20.113V18.8956H85.3246V20.113H86.542ZM90.5531 20.113H91.7705V18.8956H90.5531V20.113ZM91.0256 34.0177L89.9636 34.6129L89.9686 34.6217L91.0256 34.0177ZM92.3781 35.3424L91.7888 36.4077L91.7888 36.4077L92.3781 35.3424ZM96.4356 35.3424L95.8463 34.2772L95.8414 34.2799L96.4356 35.3424ZM97.7788 34.0177L96.7218 33.4137L96.7168 33.4226L97.7788 34.0177ZM98.2605 21.3304H102.272V18.8956H98.2605V21.3304ZM101.054 20.113V32.4337H103.489V20.113H101.054ZM101.054 32.4337C101.054 33.6151 100.775 34.5926 100.254 35.411L102.307 36.719C103.108 35.4624 103.489 34.019 103.489 32.4337H101.054ZM100.251 35.4154C99.7249 36.2491 98.9845 36.9112 97.9916 37.3998L99.0667 39.5843C100.433 38.9119 101.527 37.956 102.31 36.7146L100.251 35.4154ZM97.9962 37.3976C97.012 37.8768 95.8265 38.1362 94.4068 38.1362V40.571C96.1244 40.571 97.6871 40.2561 99.0621 39.5866L97.9962 37.3976ZM94.4068 38.1362C92.9801 38.1362 91.7917 37.8765 90.8082 37.3976L89.7423 39.5866C91.1179 40.2564 92.6839 40.571 94.4068 40.571V38.1362ZM90.8128 37.3998C89.8199 36.9112 89.0795 36.2491 88.5535 35.4154L86.4944 36.7146C87.2776 37.956 88.3714 38.9119 89.7377 39.5843L90.8128 37.3998ZM88.5535 35.4154C88.0367 34.5964 87.7593 33.6173 87.7593 32.4337H85.3246C85.3246 34.0168 85.7019 35.4586 86.4944 36.7146L88.5535 35.4154ZM87.7593 32.4337V20.113H85.3246V32.4337H87.7593ZM86.542 21.3304H90.5531V18.8956H86.542V21.3304ZM89.3358 20.113V32.0909H91.7705V20.113H89.3358ZM89.3358 32.0909C89.3358 32.9961 89.5348 33.8478 89.9636 34.6129L92.0875 33.4226C91.8864 33.0637 91.7705 32.6309 91.7705 32.0909H89.3358ZM89.9686 34.6217C90.4033 35.3824 91.0182 35.9814 91.7888 36.4077L92.9674 34.2772C92.5769 34.0612 92.2901 33.777 92.0825 33.4138L89.9686 34.6217ZM91.7888 36.4077C92.5772 36.8438 93.4627 37.0415 94.4068 37.0415V34.6068C93.807 34.6068 93.3399 34.4833 92.9674 34.2772L91.7888 36.4077ZM94.4068 37.0415C95.3549 37.0415 96.2432 36.8447 97.0297 36.405L95.8414 34.2799C95.4792 34.4824 95.015 34.6068 94.4068 34.6068V37.0415ZM97.0248 36.4077C97.7974 35.9803 98.4116 35.3786 98.8407 34.6129L96.7168 33.4226C96.516 33.7808 96.2348 34.0623 95.8463 34.2772L97.0248 36.4077ZM98.8358 34.6217C99.2738 33.8551 99.4779 33.0001 99.4779 32.0909H97.0431C97.0431 32.6268 96.926 33.0564 96.7218 33.4138L98.8358 34.6217ZM99.4779 32.0909V20.113H97.0431V32.0909H99.4779ZM120.136 20.113H121.354V18.8956H120.136V20.113ZM120.136 39.085V40.3023H121.354V39.085H120.136ZM116.672 39.085L115.67 39.7772L116.033 40.3023H116.672V39.085ZM108.418 27.1441L109.419 26.4519L109.056 25.9267H108.418V27.1441ZM108.279 27.1441V25.9267H107.061V27.1441H108.279ZM108.279 39.085V40.3023H109.496V39.085H108.279ZM104.268 39.085H103.05V40.3023H104.268V39.085ZM104.268 20.113V18.8956H103.05V20.113H104.268ZM107.788 20.113L108.791 19.4241L108.429 18.8956H107.788V20.113ZM115.977 32.0446L114.973 32.7335L115.336 33.2619H115.977V32.0446ZM116.144 32.0446V33.2619H117.361V32.0446H116.144ZM116.144 20.113V18.8956H114.926V20.113H116.144ZM118.919 20.113V39.085H121.354V20.113H118.919ZM120.136 37.8676H116.672V40.3023H120.136V37.8676ZM117.673 38.3928L109.419 26.4519L107.416 27.8363L115.67 39.7772L117.673 38.3928ZM108.418 25.9267H108.279V28.3615H108.418V25.9267ZM107.061 27.1441V39.085H109.496V27.1441H107.061ZM108.279 37.8676H104.268V40.3023H108.279V37.8676ZM105.485 39.085V20.113H103.05V39.085H105.485ZM104.268 21.3304H107.788V18.8956H104.268V21.3304ZM106.784 20.8019L114.973 32.7335L116.98 31.3557L108.791 19.4241L106.784 20.8019ZM115.977 33.2619H116.144V30.8272H115.977V33.2619ZM117.361 32.0446V20.113H114.926V32.0446H117.361ZM116.144 21.3304H120.136V18.8956H116.144V21.3304Z" fill="#F3F3F3" mask="url(#path-5-outside-1_1373_1042)"/>
<mask id="path-7-outside-2_1373_1042" maskUnits="userSpaceOnUse" x="4" y="17.8799" width="52" height="23" fill="black">
<rect fill="white" x="4" y="17.8799" width="52" height="23"/>
<path d="M5.89167 38.8799V19.9079H9.90283V27.7357H18.0456V19.9079H22.0475V38.8799H18.0456V31.0428H9.90283V38.8799H5.89167ZM34.3422 25.3642C34.2681 24.6169 33.95 24.0364 33.3881 23.6226C32.8261 23.2089 32.0633 23.002 31.0999 23.002C30.4453 23.002 29.8926 23.0946 29.4417 23.2799C28.9909 23.459 28.6451 23.7091 28.4042 24.0302C28.1695 24.3514 28.0522 24.7158 28.0522 25.1234C28.0398 25.463 28.1109 25.7595 28.2653 26.0127C28.4258 26.2659 28.6451 26.4851 28.923 26.6704C29.2009 26.8495 29.522 27.007 29.8864 27.1428C30.2508 27.2725 30.6398 27.3837 31.0536 27.4763L32.7581 27.8839C33.5857 28.0692 34.3453 28.3162 35.037 28.625C35.7287 28.9338 36.3277 29.3136 36.8341 29.7644C37.3405 30.2153 37.7327 30.7464 38.0106 31.3578C38.2947 31.9692 38.4398 32.6701 38.446 33.4606C38.4398 34.6217 38.1434 35.6283 37.5567 36.4806C36.9762 37.3267 36.1363 37.9844 35.037 38.4538C33.9439 38.9169 32.6253 39.1485 31.0814 39.1485C29.5498 39.1485 28.2158 38.9138 27.0795 38.4445C25.9493 37.9751 25.0662 37.2804 24.4301 36.3602C23.8002 35.4338 23.4698 34.2882 23.4389 32.9234H27.3204C27.3636 33.5595 27.5458 34.0906 27.8669 34.5167C28.1942 34.9367 28.6296 35.2547 29.1731 35.4709C29.7227 35.6808 30.3434 35.7858 31.0351 35.7858C31.7144 35.7858 32.3042 35.687 32.8044 35.4894C33.3109 35.2918 33.703 35.0169 33.9809 34.6649C34.2588 34.3129 34.3978 33.9084 34.3978 33.4514C34.3978 33.0253 34.2712 32.6671 34.018 32.3768C33.771 32.0865 33.4066 31.8395 32.9249 31.6357C32.4493 31.4319 31.8657 31.2466 31.174 31.0799L29.1082 30.5611C27.5087 30.172 26.2458 29.5637 25.3194 28.7362C24.393 27.9086 23.9329 26.7939 23.9391 25.392C23.9329 24.2433 24.2386 23.2397 24.8562 22.3813C25.48 21.5229 26.3353 20.8528 27.4223 20.3711C28.5092 19.8894 29.7443 19.6485 31.1277 19.6485C32.5358 19.6485 33.7648 19.8894 34.8147 20.3711C35.8707 20.8528 36.6921 21.5229 37.2788 22.3813C37.8655 23.2397 38.1681 24.234 38.1866 25.3642H34.3422ZM41.144 38.8799V19.9079H53.9279V23.215H45.1552V27.7357H53.2702V31.0428H45.1552V35.5728H53.9649V38.8799H41.144Z"/>
</mask>
<path d="M5.89167 38.8799V19.9079H9.90283V27.7357H18.0456V19.9079H22.0475V38.8799H18.0456V31.0428H9.90283V38.8799H5.89167ZM34.3422 25.3642C34.2681 24.6169 33.95 24.0364 33.3881 23.6226C32.8261 23.2089 32.0633 23.002 31.0999 23.002C30.4453 23.002 29.8926 23.0946 29.4417 23.2799C28.9909 23.459 28.6451 23.7091 28.4042 24.0302C28.1695 24.3514 28.0522 24.7158 28.0522 25.1234C28.0398 25.463 28.1109 25.7595 28.2653 26.0127C28.4258 26.2659 28.6451 26.4851 28.923 26.6704C29.2009 26.8495 29.522 27.007 29.8864 27.1428C30.2508 27.2725 30.6398 27.3837 31.0536 27.4763L32.7581 27.8839C33.5857 28.0692 34.3453 28.3162 35.037 28.625C35.7287 28.9338 36.3277 29.3136 36.8341 29.7644C37.3405 30.2153 37.7327 30.7464 38.0106 31.3578C38.2947 31.9692 38.4398 32.6701 38.446 33.4606C38.4398 34.6217 38.1434 35.6283 37.5567 36.4806C36.9762 37.3267 36.1363 37.9844 35.037 38.4538C33.9439 38.9169 32.6253 39.1485 31.0814 39.1485C29.5498 39.1485 28.2158 38.9138 27.0795 38.4445C25.9493 37.9751 25.0662 37.2804 24.4301 36.3602C23.8002 35.4338 23.4698 34.2882 23.4389 32.9234H27.3204C27.3636 33.5595 27.5458 34.0906 27.8669 34.5167C28.1942 34.9367 28.6296 35.2547 29.1731 35.4709C29.7227 35.6808 30.3434 35.7858 31.0351 35.7858C31.7144 35.7858 32.3042 35.687 32.8044 35.4894C33.3109 35.2918 33.703 35.0169 33.9809 34.6649C34.2588 34.3129 34.3978 33.9084 34.3978 33.4514C34.3978 33.0253 34.2712 32.6671 34.018 32.3768C33.771 32.0865 33.4066 31.8395 32.9249 31.6357C32.4493 31.4319 31.8657 31.2466 31.174 31.0799L29.1082 30.5611C27.5087 30.172 26.2458 29.5637 25.3194 28.7362C24.393 27.9086 23.9329 26.7939 23.9391 25.392C23.9329 24.2433 24.2386 23.2397 24.8562 22.3813C25.48 21.5229 26.3353 20.8528 27.4223 20.3711C28.5092 19.8894 29.7443 19.6485 31.1277 19.6485C32.5358 19.6485 33.7648 19.8894 34.8147 20.3711C35.8707 20.8528 36.6921 21.5229 37.2788 22.3813C37.8655 23.2397 38.1681 24.234 38.1866 25.3642H34.3422ZM41.144 38.8799V19.9079H53.9279V23.215H45.1552V27.7357H53.2702V31.0428H45.1552V35.5728H53.9649V38.8799H41.144Z" fill="#4F4E4C"/>
<path d="M5.89167 38.8799H4.6743V40.0973H5.89167V38.8799ZM5.89167 19.9079V18.6905H4.6743V19.9079H5.89167ZM9.90283 19.9079H11.1202V18.6905H9.90283V19.9079ZM9.90283 27.7357H8.68546V28.9531H9.90283V27.7357ZM18.0456 27.7357V28.9531H19.263V27.7357H18.0456ZM18.0456 19.9079V18.6905H16.8282V19.9079H18.0456ZM22.0475 19.9079H23.2649V18.6905H22.0475V19.9079ZM22.0475 38.8799V40.0973H23.2649V38.8799H22.0475ZM18.0456 38.8799H16.8282V40.0973H18.0456V38.8799ZM18.0456 31.0428H19.263V29.8255H18.0456V31.0428ZM9.90283 31.0428V29.8255H8.68546V31.0428H9.90283ZM9.90283 38.8799V40.0973H11.1202V38.8799H9.90283ZM7.10904 38.8799V19.9079H4.6743V38.8799H7.10904ZM5.89167 21.1253H9.90283V18.6905H5.89167V21.1253ZM8.68546 19.9079V27.7357H11.1202V19.9079H8.68546ZM9.90283 28.9531H18.0456V26.5183H9.90283V28.9531ZM19.263 27.7357V19.9079H16.8282V27.7357H19.263ZM18.0456 21.1253H22.0475V18.6905H18.0456V21.1253ZM20.8301 19.9079V38.8799H23.2649V19.9079H20.8301ZM22.0475 37.6625H18.0456V40.0973H22.0475V37.6625ZM19.263 38.8799V31.0428H16.8282V38.8799H19.263ZM18.0456 29.8255H9.90283V32.2602H18.0456V29.8255ZM8.68546 31.0428V38.8799H11.1202V31.0428H8.68546ZM9.90283 37.6625H5.89167V40.0973H9.90283V37.6625ZM34.3422 25.3642L33.1308 25.4843L33.2396 26.5816H34.3422V25.3642ZM29.4417 23.2799L29.8912 24.4112L29.8978 24.4086L29.9045 24.4059L29.4417 23.2799ZM28.4042 24.0302L27.4303 23.2998L27.4258 23.3059L27.4213 23.312L28.4042 24.0302ZM28.0522 25.1234L29.2688 25.1676L29.2696 25.1455V25.1234H28.0522ZM28.2653 26.0127L27.2259 26.6464L27.2314 26.6556L27.2372 26.6646L28.2653 26.0127ZM28.923 26.6704L28.2477 27.6833L28.2556 27.6885L28.2635 27.6937L28.923 26.6704ZM29.8864 27.1428L29.4611 28.2835L29.4696 28.2867L29.4782 28.2897L29.8864 27.1428ZM31.0536 27.4763L31.3367 26.2923L31.3282 26.2903L31.3196 26.2884L31.0536 27.4763ZM32.7581 27.8839L32.475 29.0679L32.4836 29.07L32.4922 29.0719L32.7581 27.8839ZM35.037 28.625L34.5407 29.7366L34.5407 29.7366L35.037 28.625ZM36.8341 29.7644L37.6436 28.8552L37.6436 28.8552L36.8341 29.7644ZM38.0106 31.3578L36.9023 31.8616L36.9066 31.8708L38.0106 31.3578ZM38.446 33.4606L39.6634 33.4671L39.6634 33.4591L39.6633 33.4511L38.446 33.4606ZM37.5567 36.4806L36.554 35.7903L36.5529 35.7919L37.5567 36.4806ZM35.037 38.4538L35.5119 39.5747L35.515 39.5733L35.037 38.4538ZM27.0795 38.4445L26.6126 39.5688L26.6148 39.5697L27.0795 38.4445ZM24.4301 36.3602L23.4234 37.0447L23.4287 37.0524L24.4301 36.3602ZM23.4389 32.9234V31.706H22.1937L22.2218 32.9509L23.4389 32.9234ZM27.3204 32.9234L28.5349 32.8408L28.4578 31.706H27.3204V32.9234ZM27.8669 34.5167L26.8947 35.2494L26.9007 35.2573L26.9067 35.2651L27.8669 34.5167ZM29.1731 35.4709L28.7232 36.602L28.7309 36.6051L28.7386 36.6081L29.1731 35.4709ZM32.8044 35.4894L32.3619 34.3553L32.3571 34.3572L32.8044 35.4894ZM33.9809 34.6649L34.9364 35.4193L34.9364 35.4193L33.9809 34.6649ZM34.018 32.3768L33.0909 33.1658L33.0957 33.1715L33.1006 33.1771L34.018 32.3768ZM32.9249 31.6357L32.4453 32.7547L32.4505 32.7569L32.9249 31.6357ZM31.174 31.0799L30.8775 32.2606L30.8887 32.2633L31.174 31.0799ZM29.1082 30.5611L29.4048 29.3804L29.396 29.3782L29.1082 30.5611ZM25.3194 28.7362L24.5084 29.644L24.5084 29.644L25.3194 28.7362ZM23.9391 25.392L25.1565 25.3974L25.1565 25.3855L23.9391 25.392ZM24.8562 22.3813L23.8714 21.6657L23.868 21.6704L24.8562 22.3813ZM34.8147 20.3711L34.307 21.4776L34.3094 21.4787L34.8147 20.3711ZM37.2788 22.3813L36.2737 23.0682L36.2737 23.0682L37.2788 22.3813ZM38.1866 25.3642V26.5816H39.4241L39.4038 25.3443L38.1866 25.3642ZM35.5536 25.2441C35.4484 24.183 34.9724 23.2774 34.1098 22.6423L32.6663 24.603C32.9277 24.7955 33.0878 25.0509 33.1308 25.4843L35.5536 25.2441ZM34.1098 22.6423C33.2723 22.0257 32.2264 21.7846 31.0999 21.7846V24.2193C31.9003 24.2193 32.3798 24.392 32.6663 24.603L34.1098 22.6423ZM31.0999 21.7846C30.3379 21.7846 29.6176 21.8914 28.979 22.1539L29.9045 24.4059C30.1675 24.2978 30.5527 24.2193 31.0999 24.2193V21.7846ZM28.9923 22.1485C28.3767 22.3931 27.8313 22.7651 27.4303 23.2998L29.3781 24.7607C29.4588 24.6531 29.6051 24.5249 29.8912 24.4112L28.9923 22.1485ZM27.4213 23.312C27.0303 23.8471 26.8348 24.4644 26.8348 25.1234H29.2696C29.2696 24.9671 29.3088 24.8557 29.3871 24.7485L27.4213 23.312ZM26.8356 25.0791C26.8159 25.6214 26.9298 26.1609 27.2259 26.6464L29.3046 25.3789C29.2919 25.358 29.2638 25.3046 29.2688 25.1676L26.8356 25.0791ZM27.2372 26.6646C27.4987 27.077 27.8445 27.4145 28.2477 27.6833L29.5982 25.6575C29.4457 25.5558 29.3529 25.4547 29.2933 25.3607L27.2372 26.6646ZM28.2635 27.6937C28.6266 27.9276 29.0286 28.1222 29.4611 28.2835L30.3117 26.0022C30.0154 25.8917 29.7752 25.7713 29.5824 25.6471L28.2635 27.6937ZM29.4782 28.2897C29.8933 28.4375 30.3302 28.5619 30.7877 28.6643L31.3196 26.2884C30.9495 26.2055 30.6082 26.1076 30.2946 25.9959L29.4782 28.2897ZM30.7705 28.6603L32.475 29.0679L33.0413 26.6999L31.3367 26.2923L30.7705 28.6603ZM32.4922 29.0719C33.2498 29.2415 33.9312 29.4646 34.5407 29.7366L35.5332 27.5134C34.7593 27.1679 33.9215 26.8969 33.0241 26.696L32.4922 29.0719ZM34.5407 29.7366C35.1315 30.0004 35.6219 30.3151 36.0247 30.6737L37.6436 28.8552C37.0336 28.3121 36.3259 27.8672 35.5332 27.5134L34.5407 29.7366ZM36.0247 30.6737C36.4056 31.0128 36.6954 31.4062 36.9024 31.8615L39.1189 30.854C38.77 30.0866 38.2755 29.4178 37.6436 28.8552L36.0247 30.6737ZM36.9066 31.8708C37.1058 32.2995 37.2236 32.8239 37.2287 33.4702L39.6633 33.4511C39.656 32.5164 39.4836 31.6389 39.1146 30.8448L36.9066 31.8708ZM37.2287 33.4542C37.2236 34.4019 36.9855 35.1634 36.554 35.7903L38.5594 37.1709C39.3012 36.0933 39.656 34.8415 39.6634 33.4671L37.2287 33.4542ZM36.5529 35.7919C36.1235 36.4176 35.4814 36.9403 34.559 37.3342L35.515 39.5733C36.7912 39.0285 37.8288 38.2357 38.5605 37.1693L36.5529 35.7919ZM34.562 37.3329C33.657 37.7164 32.509 37.9312 31.0814 37.9312V40.3659C32.7417 40.3659 34.2308 40.1175 35.5119 39.5746L34.562 37.3329ZM31.0814 37.9312C29.6714 37.9312 28.5018 37.7148 27.5442 37.3193L26.6148 39.5697C27.9299 40.1129 29.4282 40.3659 31.0814 40.3659V37.9312ZM27.5464 37.3202C26.6111 36.9318 25.9222 36.3778 25.4315 35.6679L23.4287 37.0524C24.2102 38.1829 25.2876 39.0185 26.6126 39.5688L27.5464 37.3202ZM25.4368 35.6756C24.9652 34.9821 24.6827 34.0776 24.6559 32.8958L22.2218 32.9509C22.2568 34.4988 22.6351 35.8855 23.4234 37.0447L25.4368 35.6756ZM23.4389 34.1407H27.3204V31.706H23.4389V34.1407ZM26.1058 33.0059C26.1619 33.8311 26.4057 34.6005 26.8947 35.2494L28.8391 33.784C28.6858 33.5806 28.5653 33.2878 28.5349 32.8408L26.1058 33.0059ZM26.9067 35.2651C27.38 35.8722 27.999 36.314 28.7232 36.602L29.623 34.3397C29.2602 34.1954 29.0085 34.0011 28.8271 33.7683L26.9067 35.2651ZM28.7386 36.6081C29.449 36.8795 30.2205 37.0032 31.0351 37.0032V34.5685C30.4663 34.5685 29.9964 34.4822 29.6075 34.3336L28.7386 36.6081ZM31.0351 37.0032C31.8289 37.0032 32.5771 36.8881 33.2517 36.6216L32.3571 34.3572C32.0313 34.4859 31.6 34.5685 31.0351 34.5685V37.0032ZM33.247 36.6235C33.9124 36.3638 34.4985 35.9739 34.9364 35.4193L33.0254 33.9106C32.9075 34.0599 32.7093 34.2197 32.3619 34.3553L33.247 36.6235ZM34.9364 35.4193C35.3874 34.848 35.6152 34.1765 35.6152 33.4514H33.1804C33.1804 33.6403 33.1303 33.7778 33.0254 33.9106L34.9364 35.4193ZM35.6152 33.4514C35.6152 32.7646 35.403 32.1126 34.9354 31.5765L33.1006 33.1771C33.1394 33.2215 33.1804 33.2859 33.1804 33.4514H35.6152ZM34.9451 31.5878C34.538 31.1095 33.9941 30.7662 33.3992 30.5145L32.4505 32.7569C32.8191 32.9128 33.0039 33.0635 33.0909 33.1658L34.9451 31.5878ZM33.4044 30.5168C32.8477 30.2782 32.1947 30.0737 31.4593 29.8964L30.8887 32.2633C31.5368 32.4196 32.051 32.5856 32.4453 32.7546L33.4044 30.5168ZM31.4705 29.8992L29.4047 29.3804L28.8117 31.7418L30.8775 32.2606L31.4705 29.8992ZM29.396 29.3782C27.93 29.0216 26.867 28.4863 26.1304 27.8283L24.5084 29.644C25.6245 30.6411 27.0875 31.3224 28.8205 31.744L29.396 29.3782ZM26.1304 27.8283C25.499 27.2642 25.1516 26.5006 25.1565 25.3974L22.7218 25.3866C22.7143 27.0872 23.2871 28.553 24.5084 29.644L26.1304 27.8283ZM25.1565 25.3855C25.1516 24.4707 25.3903 23.7235 25.8444 23.0923L23.868 21.6704C23.087 22.756 22.7143 24.0159 22.7218 25.3985L25.1565 25.3855ZM25.8411 23.0969C26.3241 22.4321 27.0004 21.8896 27.9155 21.4841L26.929 19.2581C25.6702 19.816 24.6358 20.6137 23.8714 21.6657L25.8411 23.0969ZM27.9155 21.4841C28.8238 21.0815 29.8867 20.8659 31.1277 20.8659V18.4312C29.602 18.4312 28.1946 18.6972 26.929 19.2581L27.9155 21.4841ZM31.1277 20.8659C32.3981 20.8659 33.4473 21.0831 34.307 21.4776L35.3223 19.2646C34.0822 18.6957 32.6735 18.4312 31.1277 18.4312V20.8659ZM34.3094 21.4787C35.1878 21.8793 35.8264 22.4136 36.2737 23.0682L38.2838 21.6944C37.5578 20.6321 36.5536 19.8263 35.3199 19.2635L34.3094 21.4787ZM36.2737 23.0682C36.7142 23.7127 36.9544 24.4706 36.9694 25.3842L39.4038 25.3443C39.3818 23.9975 39.0167 22.7667 38.2838 21.6944L36.2737 23.0682ZM38.1866 24.1468H34.3422V26.5816H38.1866V24.1468ZM41.144 38.8799H39.9267V40.0973H41.144V38.8799ZM41.144 19.9079V18.6905H39.9267V19.9079H41.144ZM53.9279 19.9079H55.1453V18.6905H53.9279V19.9079ZM53.9279 23.215V24.4324H55.1453V23.215H53.9279ZM45.1552 23.215V21.9977H43.9378V23.215H45.1552ZM45.1552 27.7357H43.9378V28.9531H45.1552V27.7357ZM53.2702 27.7357H54.4875V26.5183H53.2702V27.7357ZM53.2702 31.0428V32.2602H54.4875V31.0428H53.2702ZM45.1552 31.0428V29.8255H43.9378V31.0428H45.1552ZM45.1552 35.5728H43.9378V36.7901H45.1552V35.5728ZM53.9649 35.5728H55.1823V34.3554H53.9649V35.5728ZM53.9649 38.8799V40.0973H55.1823V38.8799H53.9649ZM42.3614 38.8799V19.9079H39.9267V38.8799H42.3614ZM41.144 21.1253H53.9279V18.6905H41.144V21.1253ZM52.7105 19.9079V23.215H55.1453V19.9079H52.7105ZM53.9279 21.9977H45.1552V24.4324H53.9279V21.9977ZM43.9378 23.215V27.7357H46.3726V23.215H43.9378ZM45.1552 28.9531H53.2702V26.5183H45.1552V28.9531ZM52.0528 27.7357V31.0428H54.4875V27.7357H52.0528ZM53.2702 29.8255H45.1552V32.2602H53.2702V29.8255ZM43.9378 31.0428V35.5728H46.3726V31.0428H43.9378ZM45.1552 36.7901H53.9649V34.3554H45.1552V36.7901ZM52.7476 35.5728V38.8799H55.1823V35.5728H52.7476ZM53.9649 37.6625H41.144V40.0973H53.9649V37.6625Z" fill="#F3F3F3" mask="url(#path-7-outside-2_1373_1042)"/>
</svg>
