<svg width="166" height="166" viewBox="0 0 166 166" fill="none" xmlns="http://www.w3.org/2000/svg">
<g clip-path="url(#clip0_2323_1714)">
<path fill-rule="evenodd" clip-rule="evenodd" d="M99.9472 150.008C136.103 150.008 166.001 120.044 166.001 83.8876C166.001 47.7977 136.038 17.7671 99.8805 17.7671C66.454 17.7671 38.421 43.4028 34.3594 75.6975C36.0905 75.6975 37.7553 75.8306 39.42 76.0968C41.484 76.3633 43.5484 76.8293 45.5457 77.4287C48.6754 50.1949 71.7144 29.0868 99.8805 29.0868C130.31 29.0868 154.681 53.5241 154.747 83.8876C154.747 98.0705 149.488 110.855 140.831 120.577C131.97 132.368 105.73 147.854 73.9512 134C72.7835 136.995 71.2889 139.839 69.517 142.484C78.6393 147.211 89.0267 150.008 99.9472 150.008Z" fill="#4F4D4C"/>
<path d="M99.8805 95.1406C112.665 95.1406 122.32 84.0874 122.32 70.1706C122.32 57.0534 112.465 45.6669 99.8805 45.6669C87.3623 45.6669 77.4408 57.0534 77.4408 70.1706C77.4408 84.0874 87.1625 95.1406 99.8805 95.1406Z" fill="#4F4D4C"/>
<path d="M140.831 120.577C130.776 112.187 115.728 106.594 99.8805 106.594C92.4226 106.594 83.9664 108.192 76.109 110.988C76.5752 113.519 76.8414 116.116 76.8414 118.712C76.8414 124.071 75.8111 129.229 73.9512 134C105.73 147.854 131.97 132.368 140.831 120.577Z" fill="#4F4D4C"/>
<circle cx="34" cy="119" r="32.5" fill="#F3F0E2" stroke="#4F4D4C" stroke-width="3"/>
<path d="M34.2651 109.549L53 97L43.4558 116.972L34.2651 109.549Z" fill="#BF191A"/>
<path d="M15 140.656L33.3814 127.93L24.3674 120.86L15 140.656Z" fill="#4369AB"/>
<circle cx="33.5358" cy="118.739" r="4.4186" fill="#4F4D4C"/>
<path d="M104.707 116.376V141H98.0217V122.532H97.8774L92.4909 125.754V120.079L98.5507 116.376H104.707Z" fill="white"/>
</g>
<defs>
<clipPath id="clip0_2323_1714">
<rect width="166" height="166" fill="white"/>
</clipPath>
</defs>
</svg>
