<svg width="166" height="166" viewBox="0 0 166 166" fill="none" xmlns="http://www.w3.org/2000/svg">
<g clip-path="url(#clip0_2323_1719)">
<path fill-rule="evenodd" clip-rule="evenodd" d="M99.9472 150.008C136.103 150.008 166.001 120.044 166.001 83.8876C166.001 47.7977 136.038 17.7671 99.8805 17.7671C66.454 17.7671 38.421 43.4028 34.3594 75.6975C36.0905 75.6975 37.7553 75.8306 39.42 76.0968C41.484 76.3633 43.5484 76.8293 45.5457 77.4287C48.6754 50.1949 71.7144 29.0868 99.8805 29.0868C130.31 29.0868 154.681 53.5241 154.747 83.8876C154.747 98.0705 149.488 110.855 140.831 120.577C131.97 132.368 105.73 147.854 73.9512 134C72.7835 136.995 71.2889 139.839 69.517 142.484C78.6393 147.211 89.0267 150.008 99.9472 150.008Z" fill="#4F4D4C"/>
<path d="M99.8805 95.1406C112.665 95.1406 122.32 84.0874 122.32 70.1706C122.32 57.0534 112.465 45.6669 99.8805 45.6669C87.3623 45.6669 77.4408 57.0534 77.4408 70.1706C77.4408 84.0874 87.1625 95.1406 99.8805 95.1406Z" fill="#4F4D4C"/>
<path d="M140.831 120.577C130.776 112.187 115.728 106.594 99.8805 106.594C92.4226 106.594 83.9664 108.192 76.109 110.988C76.5752 113.519 76.8414 116.116 76.8414 118.712C76.8414 124.071 75.8111 129.229 73.9512 134C105.73 147.854 131.97 132.368 140.831 120.577Z" fill="#4F4D4C"/>
<circle cx="34" cy="119" r="32.5" fill="#F3F0E2" stroke="#4F4D4C" stroke-width="3"/>
<path d="M34.2651 109.549L53 97L43.4558 116.972L34.2651 109.549Z" fill="#BF191A"/>
<path d="M15 140.656L33.3814 127.93L24.3674 120.86L15 140.656Z" fill="#4369AB"/>
<circle cx="33.5358" cy="118.739" r="4.4186" fill="#4F4D4C"/>
<path d="M92.6352 141V136.191L101.821 128.592C102.43 128.087 102.951 127.614 103.384 127.173C103.825 126.724 104.162 126.263 104.394 125.79C104.635 125.317 104.755 124.792 104.755 124.215C104.755 123.582 104.619 123.041 104.346 122.592C104.082 122.143 103.713 121.799 103.24 121.558C102.767 121.31 102.222 121.185 101.605 121.185C100.987 121.185 100.442 121.31 99.9695 121.558C99.5046 121.807 99.1439 122.171 98.8874 122.652C98.6309 123.133 98.5026 123.718 98.5026 124.408H92.1543C92.1543 122.676 92.543 121.185 93.3205 119.935C94.098 118.684 95.1962 117.723 96.615 117.049C98.0337 116.376 99.697 116.039 101.605 116.039C103.577 116.039 105.284 116.356 106.727 116.989C108.178 117.614 109.296 118.496 110.081 119.634C110.875 120.773 111.272 122.107 111.272 123.638C111.272 124.584 111.075 125.526 110.682 126.464C110.29 127.393 109.584 128.423 108.566 129.554C107.548 130.684 106.101 132.03 104.226 133.594L101.917 135.517V135.662H111.536V141H92.6352Z" fill="white"/>
</g>
<defs>
<clipPath id="clip0_2323_1719">
<rect width="166" height="166" fill="white"/>
</clipPath>
</defs>
</svg>
