<svg width="430" height="34" viewBox="0 0 430 34" fill="none" xmlns="http://www.w3.org/2000/svg">
<path d="M0 10C0 4.47715 4.47715 0 10 0H420C425.523 0 430 4.47715 430 10V24C430 29.5228 425.523 34 420 34H10C4.47716 34 0 29.5228 0 24V10Z" fill="white"/>
<path d="M308.827 5.32603C308.911 5.10123 308.633 4.918 308.459 5.08284L303.676 9.61156C303.542 9.73875 303.32 9.65999 303.296 9.47657L302.44 2.96134C302.409 2.72379 302.079 2.69098 302.001 2.91777L299.881 9.14091C299.821 9.31596 299.588 9.34962 299.481 9.19861L295.682 3.8242C295.543 3.6285 295.236 3.75364 295.273 3.99036L296.3 10.4786C296.328 10.6615 296.138 10.7999 295.973 10.7157L290.101 7.71581C289.888 7.60667 289.673 7.86097 289.817 8.05313L293.753 13.3203C293.864 13.4689 293.759 13.6808 293.574 13.6824L286.978 13.742C286.738 13.7442 286.666 14.0693 286.882 14.1729L292.826 17.0155C292.993 17.0956 292.999 17.3322 292.835 17.4196L287.024 20.5224C286.813 20.6354 286.899 20.957 287.139 20.9486L293.731 20.7162C293.916 20.7097 294.031 20.9166 293.926 21.07L290.229 26.5064C290.094 26.7047 290.32 26.9492 290.528 26.8307L296.261 23.5736C296.422 23.4822 296.618 23.612 296.598 23.796L295.861 30.3237C295.834 30.5619 296.148 30.6732 296.277 30.4715L299.833 24.9344C299.933 24.7788 300.167 24.802 300.235 24.9742L302.632 31.097C302.719 31.3201 303.048 31.2726 303.068 31.0338L303.631 24.4877C303.647 24.3033 303.865 24.2147 304.005 24.3358L308.986 28.6485C309.167 28.8055 309.436 28.6101 309.343 28.3892L306.787 22.3356C306.715 22.1648 306.867 21.9845 307.047 22.027L313.467 23.5406C313.701 23.5957 313.849 23.2973 313.663 23.1451L308.576 18.9696C308.432 18.8518 308.484 18.6208 308.663 18.575L315.052 16.946C315.284 16.8866 315.277 16.5536 315.042 16.5047L308.587 15.1607C308.406 15.1229 308.344 14.8945 308.482 14.7704L313.378 10.3735C313.556 10.2131 313.396 9.92163 313.165 9.98698L306.818 11.7833C306.64 11.8338 306.48 11.6604 306.544 11.4867L308.827 5.32603Z" fill="#B9BDF4"/>
<path d="M22.0658 26.2401V11.3421H13.2258V8.56015H34.1818V11.3421H25.3418V26.2401H22.0658Z" fill="#122937"/>
<path d="M37.2112 26.2401V8.56015H55.4632V11.3161H40.4872V15.9701H53.6952V18.6221H40.4872V23.4841H55.4632V26.2401H37.2112Z" fill="#122937"/>
<path d="M69.2803 26.6041C61.9743 26.6041 57.9963 23.1721 57.9963 17.7381V17.0621C57.9963 11.6281 61.9743 8.19615 69.2803 8.19615C74.6883 8.19615 78.1463 9.91215 79.8103 13.0061L76.8983 14.4621C75.5463 12.0961 73.1803 10.8741 69.3583 10.8741C64.3923 10.8741 61.3503 12.8501 61.3503 17.2701V17.5301C61.3503 21.9501 64.3923 23.9261 69.3583 23.9261C73.1803 23.9261 75.5463 22.7561 76.8983 20.3901L79.7323 21.7681C78.0943 24.8621 74.6883 26.6041 69.2803 26.6041Z" fill="#122937"/>
<path d="M99.7873 26.2401V18.6221H86.1893V26.2401H82.9133V8.56015H86.1893V15.8921H99.7873V8.56015H103.063V26.2401H99.7873Z" fill="#122937"/>
<path d="M107.377 26.2401V8.56015H110.939L125.083 22.4441V8.56015H128.177V26.2401H124.615L110.471 12.3561V26.2401H107.377Z" fill="#122937"/>
<path d="M143.082 26.6041C135.516 26.6041 131.564 23.1721 131.564 17.7381V17.0621C131.564 11.6281 135.516 8.19615 143.082 8.19615C150.648 8.19615 154.6 11.6281 154.6 17.0621V17.7381C154.6 23.1721 150.648 26.6041 143.082 26.6041ZM143.082 23.9261C148.178 23.9261 151.246 21.9761 151.246 17.5301V17.2701C151.246 12.8241 148.178 10.8741 143.082 10.8741C137.986 10.8741 134.918 12.8241 134.918 17.2701V17.5301C134.918 21.9761 137.986 23.9261 143.082 23.9261Z" fill="#122937"/>
<path d="M175.835 26.6041C168.269 26.6041 164.317 23.1721 164.317 17.7381V17.0621C164.317 11.6281 168.269 8.19615 175.835 8.19615C183.401 8.19615 187.353 11.6281 187.353 17.0621V17.7381C187.353 21.5081 185.429 24.3421 181.737 25.6941L184.415 28.7881L181.477 30.3741L178.747 26.4221C177.863 26.5261 176.875 26.6041 175.835 26.6041ZM175.835 23.9261C180.931 23.9261 183.999 21.9761 183.999 17.5301V17.2701C183.999 12.8241 180.931 10.8741 175.835 10.8741C170.739 10.8741 167.671 12.8241 167.671 17.2701V17.5301C167.671 21.9761 170.739 23.9261 175.835 23.9261Z" fill="#122937"/>
<path d="M200.82 26.5781C193.904 26.5781 190.42 23.6921 190.42 17.8421V8.56015H193.696V17.6601C193.696 22.1321 196.114 23.8741 200.82 23.8741C205.526 23.8741 207.944 22.1061 207.944 17.6601V8.56015H211.168V17.8421C211.168 23.6921 207.736 26.5781 200.82 26.5781Z" fill="#122937"/>
<path d="M215.17 26.2401V8.56015H233.422V11.3161H218.446V15.9701H231.654V18.6221H218.446V23.4841H233.422V26.2401H215.17Z" fill="#122937"/>
<path d="M246.3 26.6041C242.01 26.6041 238.084 25.6941 235.9 23.9001L237.798 21.3781C239.644 23.0681 242.998 23.9261 246.404 23.9261C250.07 23.9261 251.942 23.0161 251.942 21.3261C251.942 17.1401 236.888 20.7281 236.888 13.6301C236.888 9.80815 240.97 8.19615 245.936 8.19615C249.706 8.19615 253.164 9.05415 255.088 10.5881L253.294 12.9801C251.656 11.6801 248.744 10.8741 245.858 10.8741C242.53 10.8741 240.268 11.7061 240.268 13.3441C240.268 17.2441 255.348 13.9421 255.348 21.0141C255.348 25.0181 251.552 26.6041 246.3 26.6041Z" fill="#122937"/>
<path d="M266.28 26.2401V11.3421H257.44V8.56015H278.396V11.3421H269.556V26.2401H266.28Z" fill="#122937"/>
<path d="M340.851 26.2401L330.815 18.6741H328.345V26.2401H325.069V8.56015H328.345V16.5681H329.203L340.591 8.56015H345.141L333.155 16.8021L345.609 26.2401H340.851Z" fill="#122937"/>
<path d="M348.364 26.2401V8.56015H361.598C365.628 8.56015 367.682 10.4841 367.682 13.9421C367.682 17.4001 365.628 19.3241 361.598 19.3241H351.64V26.2401H348.364ZM351.64 16.6201H361.416C363.392 16.6201 364.406 15.6841 364.406 13.9421C364.406 12.2001 363.392 11.2641 361.416 11.2641H351.64V16.6201Z" fill="#122937"/>
<path d="M381.2 26.6041C373.634 26.6041 369.682 23.1721 369.682 17.7381V17.0621C369.682 11.6281 373.634 8.19615 381.2 8.19615C388.766 8.19615 392.718 11.6281 392.718 17.0621V17.7381C392.718 23.1721 388.766 26.6041 381.2 26.6041ZM381.2 23.9261C386.296 23.9261 389.364 21.9761 389.364 17.5301V17.2701C389.364 12.8241 386.296 10.8741 381.2 10.8741C376.104 10.8741 373.036 12.8241 373.036 17.2701V17.5301C373.036 21.9761 376.104 23.9261 381.2 23.9261Z" fill="#122937"/>
<path d="M411.879 26.2401L401.843 18.6741H399.373V26.2401H396.097V8.56015H399.373V16.5681H400.231L411.619 8.56015H416.169L404.183 16.8021L416.637 26.2401H411.879Z" fill="#122937"/>
</svg>
