<svg width="1600" height="192" viewBox="0 0 1600 192" fill="none" xmlns="http://www.w3.org/2000/svg">
<path d="M37.5959 188.221L37.5959 115.455L39.7395 115.455L88.7423 189.052L89.1875 189.721L89.9908 189.721L134.992 189.721L137.973 189.721L136.196 187.327L79.8212 111.354C87.7533 109.583 93.857 106.71 98.3401 103.56C113.26 93.5475 120.662 77.2412 120.662 58.8234C120.662 44.6666 116.405 28.3915 101.797 16.1063L101.794 16.1035C93.0592 8.80139 79.9902 2.16899 55.1073 1.91289L55.1073 1.89422L53.6073 1.89422L-8.16459e-06 1.89423L-1.50001 1.89423L-1.50001 3.39423L-1.5 188.221L-1.5 189.721L6.57281e-08 189.721L36.0959 189.721L37.5959 189.721L37.5959 188.221ZM46.3837 86.9747L37.6069 86.9747L37.6069 34.2806L46.9368 34.2806C50.2504 34.2806 58.7224 34.4273 66.3274 37.8209C70.1075 39.5078 73.6177 41.9732 76.1854 45.574C78.7441 49.1621 80.4375 53.9758 80.4375 60.4897C80.4375 67.0003 78.7286 71.8308 76.1397 75.446C73.541 79.0747 69.9858 81.5758 66.1513 83.2978C58.4394 86.761 49.8247 86.9747 46.3837 86.9747Z" fill="url(#paint0_linear_2169_1015)" stroke="#C80002" stroke-width="3" stroke-miterlimit="10"/>
<path d="M176.929 1.97609L143.141 1.97609L141.641 1.97609L141.641 3.47609L141.641 114C141.641 131.186 144.365 148.929 155.527 163.141C168.915 180.668 192.232 189.732 215.912 189.732C239.591 189.732 262.908 180.668 276.296 163.141C287.469 148.929 290.194 131.186 290.194 114L290.194 3.47608L290.194 1.97608L288.694 1.97608L253.395 1.97608L251.895 1.97608L251.895 3.47608L251.895 116.977C251.895 130.432 247.41 138.471 243.577 142.802L243.56 142.821L243.544 142.84C238.651 148.756 229.558 154.757 215.912 154.757C202.266 154.757 193.173 148.756 188.279 142.84L188.263 142.821L188.247 142.802C184.413 138.471 179.929 130.432 179.929 116.977L179.929 3.47609L178.439 3.47609L178.439 1.97609L178.429 1.97609L176.929 1.97609Z" fill="url(#paint1_linear_2169_1015)" stroke="#C80002" stroke-width="3" stroke-miterlimit="10"/>
<path d="M321.273 1.97499L319.773 1.97499L319.773 3.47499L319.773 186.801L319.773 188.301L319.773 188.313L321.273 188.312L321.273 189.801L357.38 189.801L358.88 189.801L358.88 188.301L358.88 67.2303L469.046 189.306L469.492 189.801L470.159 189.801L495.16 189.801L496.66 189.801L496.66 188.301L496.66 3.47498L496.66 1.97498L495.16 1.97498L459.053 1.97498L457.553 1.97498L457.553 3.47498L457.553 124.007L347.385 2.4676L346.939 1.97499L346.274 1.97499L321.273 1.97499Z" fill="url(#paint2_linear_2169_1015)" stroke="#C80002" stroke-width="3" stroke-miterlimit="10"/>
<path d="M590.016 188.303L590.016 115.537L592.159 115.537L641.162 189.134L641.607 189.803L642.411 189.803L687.412 189.803L690.393 189.803L688.616 187.409L632.241 111.436C640.173 109.665 646.277 106.792 650.76 103.642C665.68 93.6296 673.082 77.3233 673.082 58.9054C673.082 44.7487 668.825 28.4735 654.217 16.1883L654.214 16.1855C645.479 8.88342 632.41 2.25102 607.527 1.99492L607.527 1.97625L606.027 1.97625L552.42 1.97626L550.92 1.97626L550.92 3.47626L550.92 188.303L550.92 189.803L552.42 189.803L588.516 189.803L590.016 189.803L590.016 188.303ZM598.804 87.0567L590.027 87.0567L590.027 34.3626L599.357 34.3626C602.67 34.3626 611.142 34.5093 618.747 37.903C622.527 39.5898 626.038 42.0552 628.605 45.656C631.164 49.2442 632.857 54.0578 632.857 60.5717C632.857 67.0823 631.149 71.9128 628.56 75.528C625.961 79.1567 622.406 81.6579 618.571 83.3798C610.859 86.843 602.245 87.0567 598.804 87.0567Z" fill="url(#paint3_linear_2169_1015)" stroke="#C80002" stroke-width="3" stroke-miterlimit="10"/>
<path d="M729.35 2.05812L695.562 2.05812L694.062 2.05812L694.062 3.55812L694.062 114.082C694.062 131.268 696.787 149.011 707.949 163.223C721.337 180.75 744.654 189.814 768.334 189.814C792.013 189.814 815.33 180.75 828.718 163.223C839.891 149.011 842.616 131.268 842.616 114.082L842.616 3.55811L842.616 2.05811L841.116 2.05811L805.817 2.05812L804.317 2.05812L804.317 3.55812L804.317 117.059C804.317 130.514 799.832 138.553 795.999 142.884L795.982 142.903L795.966 142.922C791.072 148.838 781.98 154.839 768.334 154.839C754.688 154.839 745.595 148.838 740.701 142.922L740.685 142.903L740.669 142.884C736.835 138.553 732.35 130.514 732.35 117.059L732.35 3.55812L730.861 3.55812L730.861 2.05812L730.85 2.05812L729.35 2.05812Z" fill="url(#paint4_linear_2169_1015)" stroke="#C80002" stroke-width="3" stroke-miterlimit="10"/>
<path d="M873.693 2.05702L872.193 2.05702L872.193 3.55702L872.193 186.883L872.193 188.383L872.193 188.395L873.693 188.395L873.693 189.883L909.8 189.883L911.3 189.883L911.3 188.383L911.3 67.3124L1021.47 189.388L1021.91 189.883L1022.58 189.883L1047.58 189.883L1049.08 189.883L1049.08 188.383L1049.08 3.55701L1049.08 2.05701L1047.58 2.05701L1011.47 2.05702L1009.97 2.05702L1009.97 3.55702L1009.97 124.089L899.805 2.54964L899.359 2.05702L898.694 2.05702L873.693 2.05702Z" fill="url(#paint5_linear_2169_1015)" stroke="#C80002" stroke-width="3" stroke-miterlimit="10"/>
<path d="M1142.44 188.303L1142.44 115.537L1144.58 115.537L1193.58 189.134L1194.03 189.803L1194.83 189.803L1239.83 189.803L1242.81 189.803L1241.04 187.409L1184.66 111.436C1192.59 109.665 1198.7 106.792 1203.18 103.642C1218.1 93.6296 1225.5 77.3233 1225.5 58.9054C1225.5 44.7487 1221.24 28.4735 1206.64 16.1883L1206.63 16.1855C1197.9 8.88342 1184.83 2.25102 1159.95 1.99492L1159.95 1.97625L1158.45 1.97625L1104.84 1.97626L1103.34 1.97626L1103.34 3.47626L1103.34 188.303L1103.34 189.803L1104.84 189.803L1140.94 189.803L1142.44 189.803L1142.44 188.303ZM1151.22 87.0567L1142.45 87.0567L1142.45 34.3626L1151.78 34.3626C1155.09 34.3626 1163.56 34.5093 1171.17 37.903C1174.95 39.5898 1178.46 42.0552 1181.03 45.656C1183.58 49.2442 1185.28 54.0578 1185.28 60.5717C1185.28 67.0823 1183.57 71.9128 1180.98 75.528C1178.38 79.1567 1174.83 81.6579 1170.99 83.3798C1163.28 86.843 1154.66 87.0567 1151.22 87.0567Z" fill="url(#paint6_linear_2169_1015)" stroke="#C80002" stroke-width="3" stroke-miterlimit="10"/>
<path d="M1281.77 2.05812L1247.98 2.05812L1246.48 2.05812L1246.48 3.55812L1246.48 114.082C1246.48 131.268 1249.21 149.011 1260.37 163.223C1273.76 180.75 1297.07 189.814 1320.75 189.814C1344.43 189.814 1367.75 180.75 1381.14 163.223C1392.31 149.011 1395.04 131.268 1395.04 114.082L1395.04 3.55811L1395.04 2.05811L1393.54 2.05811L1358.24 2.05812L1356.74 2.05812L1356.74 3.55812L1356.74 117.059C1356.74 130.514 1352.25 138.553 1348.42 142.884L1348.4 142.903L1348.39 142.922C1343.49 148.838 1334.4 154.839 1320.75 154.839C1307.11 154.839 1298.01 148.838 1293.12 142.922L1293.11 142.903L1293.09 142.884C1289.26 138.553 1284.77 130.514 1284.77 117.059L1284.77 3.55812L1283.28 3.55812L1283.28 2.05812L1283.27 2.05812L1281.77 2.05812Z" fill="url(#paint7_linear_2169_1015)" stroke="#C80002" stroke-width="3" stroke-miterlimit="10"/>
<path d="M1426.11 2.05702L1424.61 2.05702L1424.61 3.55702L1424.61 186.883L1424.61 188.383L1424.61 188.395L1426.11 188.395L1426.11 189.883L1462.22 189.883L1463.72 189.883L1463.72 188.383L1463.72 67.3124L1573.89 189.388L1574.33 189.883L1575 189.883L1600 189.883L1601.5 189.883L1601.5 188.383L1601.5 3.55701L1601.5 2.05701L1600 2.05701L1563.89 2.05702L1562.39 2.05702L1562.39 3.55702L1562.39 124.089L1452.23 2.54964L1451.78 2.05702L1451.11 2.05702L1426.11 2.05702Z" fill="url(#paint8_linear_2169_1015)" stroke="#C80002" stroke-width="3" stroke-miterlimit="10"/>
<defs>
<linearGradient id="paint0_linear_2169_1015" x1="7.94445" y1="102.103" x2="159.243" y2="157.405" gradientUnits="userSpaceOnUse">
<stop offset="1" stop-color="#F3F3F3"/>
</linearGradient>
<linearGradient id="paint1_linear_2169_1015" x1="151.707" y1="102.148" x2="311.759" y2="165.25" gradientUnits="userSpaceOnUse">
<stop offset="1" stop-color="#F3F3F3"/>
</linearGradient>
<linearGradient id="paint2_linear_2169_1015" x1="331.507" y1="102.172" x2="514.972" y2="185.078" gradientUnits="userSpaceOnUse">
<stop offset="1" stop-color="#F3F3F3"/>
</linearGradient>
<linearGradient id="paint3_linear_2169_1015" x1="560.364" y1="102.185" x2="711.663" y2="157.487" gradientUnits="userSpaceOnUse">
<stop offset="1" stop-color="#F3F3F3"/>
</linearGradient>
<linearGradient id="paint4_linear_2169_1015" x1="704.128" y1="102.23" x2="864.181" y2="165.332" gradientUnits="userSpaceOnUse">
<stop offset="1" stop-color="#F3F3F3"/>
</linearGradient>
<linearGradient id="paint5_linear_2169_1015" x1="883.927" y1="102.254" x2="1067.39" y2="185.16" gradientUnits="userSpaceOnUse">
<stop offset="1" stop-color="#F3F3F3"/>
</linearGradient>
<linearGradient id="paint6_linear_2169_1015" x1="1112.78" y1="102.185" x2="1264.08" y2="157.487" gradientUnits="userSpaceOnUse">
<stop offset="1" stop-color="#F3F3F3"/>
</linearGradient>
<linearGradient id="paint7_linear_2169_1015" x1="1256.55" y1="102.23" x2="1416.6" y2="165.332" gradientUnits="userSpaceOnUse">
<stop offset="1" stop-color="#F3F3F3"/>
</linearGradient>
<linearGradient id="paint8_linear_2169_1015" x1="1436.35" y1="102.254" x2="1619.81" y2="185.16" gradientUnits="userSpaceOnUse">
<stop offset="1" stop-color="#F3F3F3"/>
</linearGradient>
</defs>
</svg>
