<svg width="68" height="1212" viewBox="0 0 68 1212" fill="none" xmlns="http://www.w3.org/2000/svg">
<path fill-rule="evenodd" clip-rule="evenodd" d="M22.2812 64.6828C9.57445 59.9642 0.520439 47.7296 0.520439 33.3804C0.520439 14.9449 15.4654 0 33.9008 0C52.3363 0 67.2812 14.9449 67.2812 33.3804C67.2812 47.4416 58.5871 59.4721 46.2812 64.3896V188.937C58.4491 193.92 67.0206 205.88 67.0206 219.841C67.0206 233.803 58.4491 245.763 46.2812 250.745V371.059C58.4491 376.041 67.0206 388.001 67.0206 401.963C67.0206 415.924 58.4491 427.884 46.2812 432.867V647.827C58.4491 652.809 67.0206 664.769 67.0206 678.731C67.0206 692.692 58.4491 704.652 46.2812 709.634V902.357C58.3107 907.402 66.76 919.291 66.76 933.153C66.76 947.014 58.3107 958.903 46.2812 963.948V1211.39H22.2812V964.644C9.30153 960.069 -0.000808716 947.697 -0.000808716 933.153C-0.000808716 918.608 9.30153 906.236 22.2812 901.661V710.128C9.43781 705.481 0.259811 693.178 0.259811 678.731C0.259811 664.283 9.43781 651.98 22.2812 647.333V433.361C9.43781 428.713 0.259811 416.41 0.259811 401.963C0.259811 387.516 9.43781 375.212 22.2812 370.565V251.239C9.43781 246.592 0.259811 234.288 0.259811 219.841C0.259811 205.394 9.43781 193.091 22.2812 188.443V64.6828Z" fill="url(#paint0_linear_1642_1093)"/>
<circle cx="19.7888" cy="19.7888" r="19.7888" transform="matrix(-1 0 0 1 54.3691 12.1924)" fill="#F3F3F3"/>
<circle cx="19.7888" cy="19.7888" r="19.7888" transform="matrix(-1 0 0 1 53.0488 380.922)" fill="#F3F3F3"/>
<circle cx="19.7888" cy="19.7888" r="19.7888" transform="matrix(-1 0 0 1 53.5781 199)" fill="#F3F3F3"/>
<circle cx="19.7888" cy="19.7888" r="19.7888" transform="matrix(-1 0 0 1 53.0488 911.408)" fill="#F3F3F3"/>
<circle cx="19.7888" cy="19.7888" r="19.7888" transform="matrix(-1 0 0 1 53.0488 657.539)" fill="#F3F3F3"/>
<defs>
<linearGradient id="paint0_linear_1642_1093" x1="33.6402" y1="0" x2="33.6402" y2="1273.41" gradientUnits="userSpaceOnUse">
<stop offset="0.701667" stop-color="#C80002"/>
<stop offset="0.926667" stop-color="#F3F3F3"/>
</linearGradient>
</defs>
</svg>
