<svg width="55" height="32" viewBox="0 0 55 32" fill="none" xmlns="http://www.w3.org/2000/svg">
<path fill-rule="evenodd" clip-rule="evenodd" d="M53.261 2.70752C53.6363 1.49752 53.261 0.608398 51.4745 0.608398H45.5669C44.0648 0.608398 43.3722 1.37647 42.9967 2.22341C42.9967 2.22341 39.9923 9.30184 35.7364 13.8996C34.3596 15.2307 33.7337 15.6542 32.9826 15.6542C32.6071 15.6542 32.0437 15.2307 32.0437 14.0208V2.70752C32.0437 1.25552 31.6277 0.608398 30.3758 0.608398H21.0923C20.1536 0.608398 19.5891 1.28229 19.5891 1.92098C19.5891 3.29745 21.7169 3.61489 21.9363 7.48688V15.8963C21.9363 17.7399 21.5918 18.0742 20.8407 18.0742C18.838 18.0742 13.9664 10.9642 11.0771 2.82846C10.5109 1.24715 9.94295 0.608398 8.43313 0.608398H2.52549C0.837599 0.608398 0.5 1.37647 0.5 2.22341C0.5 3.73594 2.50282 11.2378 9.82545 21.1596C14.7072 27.9353 21.5852 31.6084 27.8438 31.6084C31.5991 31.6084 32.0637 30.7927 32.0637 29.3875V24.2663C32.0637 22.6348 32.4194 22.3091 33.6086 22.3091C34.4847 22.3091 35.9868 22.7327 39.4916 25.9996C43.4973 29.8715 44.1577 31.6084 46.4106 31.6084H52.3185C54.0062 31.6084 54.8502 30.7927 54.3633 29.1826C53.8305 27.5782 51.9182 25.2503 49.3806 22.4906C48.0036 20.9176 45.9381 19.2237 45.3122 18.3765C44.436 17.2877 44.6864 16.8037 45.3122 15.8358C45.3122 15.8358 52.5099 6.03488 53.261 2.70752Z" fill="#4369AC"/>
</svg>
