<svg width="1360" height="600" viewBox="0 0 1360 600" fill="none" xmlns="http://www.w3.org/2000/svg">
<mask id="path-1-inside-1_1634_908" fill="white">
<path fill-rule="evenodd" clip-rule="evenodd" d="M80 0C35.8172 0 0 35.8172 0 80V252C0 296.183 35.8172 332 80 332H565C609.183 332 645 367.817 645 412V520C645 564.183 680.817 600 725 600H1280C1324.18 600 1360 564.183 1360 520V80C1360 35.8172 1324.18 0 1280 0H80Z"/>
</mask>
<path d="M2 80C2 36.9218 36.9218 2 80 2V-2C34.7127 -2 -2 34.7126 -2 80H2ZM2 252V80H-2V252H2ZM80 334H565V330H80V334ZM643 412V520H647V412H643ZM1280 598H725V602H1280V598ZM1358 520C1358 563.078 1323.08 598 1280 598V602C1325.29 602 1362 565.287 1362 520H1358ZM1358 80V520H1362V80H1358ZM1280 2C1323.08 2 1358 36.9218 1358 80H1362C1362 34.7127 1325.29 -2 1280 -2V2ZM80 2H1280V-2H80V2ZM643 520C643 565.287 679.713 602 725 602V598C681.922 598 647 563.078 647 520H643ZM565 334C608.078 334 643 368.922 643 412H647C647 366.713 610.287 330 565 330V334ZM-2 252C-2 297.287 34.7127 334 80 334V330C36.9218 330 2 295.078 2 252H-2Z" fill="#C80002" mask="url(#path-1-inside-1_1634_908)"/>
</svg>
