<svg width="338" height="288" viewBox="0 0 338 288" fill="none" xmlns="http://www.w3.org/2000/svg">
<mask id="path-1-inside-1_1921_1429" fill="white">
<path fill-rule="evenodd" clip-rule="evenodd" d="M19.446 0.626953C8.70627 0.626953 0 9.33324 0 20.073V132.144C0 144.069 9.66661 153.735 21.591 153.735H158.76C170.684 153.735 180.351 163.402 180.351 175.326V266.409C180.351 278.333 190.017 288 201.942 288H318.158C328.898 288 337.604 279.294 337.604 268.554V20.073C337.604 9.33322 328.898 0.626953 318.158 0.626953H19.446Z"/>
</mask>
<path d="M1 20.073C1 9.88552 9.25856 1.62695 19.446 1.62695V-0.373047C8.15399 -0.373047 -1 8.78095 -1 20.073H1ZM1 132.144V20.073H-1V132.144H1ZM21.591 154.735H158.76V152.735H21.591V154.735ZM179.351 175.326V266.409H181.351V175.326H179.351ZM318.158 287H201.942V289H318.158V287ZM336.604 268.554C336.604 278.741 328.346 287 318.158 287V289C329.45 289 338.604 279.846 338.604 268.554H336.604ZM336.604 20.073V268.554H338.604V20.073H336.604ZM318.158 1.62695C328.346 1.62695 336.604 9.88551 336.604 20.073H338.604C338.604 8.78094 329.45 -0.373047 318.158 -0.373047V1.62695ZM19.446 1.62695H318.158V-0.373047H19.446V1.62695ZM179.351 266.409C179.351 278.886 189.465 289 201.942 289V287C190.57 287 181.351 277.781 181.351 266.409H179.351ZM158.76 154.735C170.132 154.735 179.351 163.954 179.351 175.326H181.351C181.351 162.85 171.237 152.735 158.76 152.735V154.735ZM-1 132.144C-1 144.621 9.11432 154.735 21.591 154.735V152.735C10.2189 152.735 1 143.516 1 132.144H-1Z" fill="#C80002" mask="url(#path-1-inside-1_1921_1429)"/>
</svg>
