<svg width="292" height="128" viewBox="0 0 292 128" fill="none" xmlns="http://www.w3.org/2000/svg">
<mask id="mask0_386_903" style="mask-type:luminance" maskUnits="userSpaceOnUse" x="32" y="32" width="64" height="64">
<path fill-rule="evenodd" clip-rule="evenodd" d="M47.9057 32.0281L50.6432 32L79.1264 32.011C79.5583 32.0154 79.8268 32.0208 80.0954 32.0281C81.5075 32.0656 82.9319 32.1483 84.3284 32.3964C85.7461 32.6478 87.0645 33.0591 88.3516 33.7075C89.6165 34.3437 90.7754 35.1751 91.7793 36.1686C92.7832 37.1599 93.6242 38.3045 94.2678 39.556C94.9247 40.8296 95.3397 42.133 95.594 43.5345C95.845 44.915 95.9286 46.3231 95.9665 47.7191C95.9844 48.3597 95.9922 49.0004 95.9955 49.6421L95.9994 50.783L96 76.0654C96 76.8263 96 77.5871 95.9955 78.3491C95.9922 78.9897 95.9844 79.6304 95.9665 80.271C95.9286 81.6659 95.845 83.0751 95.594 84.4545C95.3397 85.856 94.9247 87.1605 94.2678 88.4341C93.6242 89.6845 92.7832 90.8291 91.7793 91.8215C90.7754 92.8139 89.6165 93.6464 88.3516 94.2826C87.0645 94.931 85.7461 95.3423 84.3284 95.5937C82.9319 95.8418 81.5075 95.9245 80.0954 95.962L75.8412 95.9951L48.8739 95.9791C48.442 95.9747 48.1739 95.9693 47.9057 95.962C46.4936 95.9245 45.0692 95.8418 43.6727 95.5937C42.2551 95.3423 40.9367 94.931 39.6495 94.2826C38.3835 93.6464 37.2257 92.8139 36.2218 91.8215C35.218 90.8291 34.3769 89.6845 33.7322 88.4341C33.0764 87.1605 32.6614 85.856 32.406 84.4545C32.155 83.0751 32.0725 81.6659 32.0346 80.271C32.0167 79.6304 32.0089 78.9897 32.0056 78.3491L32.0007 77.2068L32 51.9247C32 51.1638 32 50.4019 32.0056 49.6421C32.0089 49.0004 32.0167 48.3597 32.0346 47.7191C32.0725 46.3231 32.155 44.915 32.406 43.5345C32.6614 42.133 33.0764 40.8296 33.7322 39.556C34.3769 38.3045 35.218 37.1599 36.2218 36.1686C37.2257 35.1751 38.3835 34.3437 39.6495 33.7075C40.9367 33.0591 42.2551 32.6478 43.6727 32.3964C45.0692 32.1483 46.4936 32.0656 47.9057 32.0281Z" fill="white"/>
</mask>
<g mask="url(#mask0_386_903)">
<rect x="32" y="31.995" width="64" height="64" fill="#1BA136"/>
<path fill-rule="evenodd" clip-rule="evenodd" d="M32 31.995H96V52.995L32 42.995V31.995Z" fill="#FFB814"/>
<path fill-rule="evenodd" clip-rule="evenodd" d="M32 88.995L96 78.995V95.995H32V88.995Z" fill="#82D714"/>
<path fill-rule="evenodd" clip-rule="evenodd" d="M32 41.7299L54.3397 45.2204C57.1206 43.4601 60.429 42.495 64 42.495C68.946 42.495 73.3883 44.3465 76.6229 47.5977C77.0311 48.008 77.4161 48.437 77.7771 48.8825L96 51.7298V54.2601L79.6275 51.702C80.8438 54.0362 81.5 56.6369 81.5 59.291C81.5 62.7198 80.733 66.1386 79.1477 69.5709L79.0994 69.6749L78.4261 71.1177H76.8339C73.5462 71.1177 71.3653 72.1012 69.9395 73.8441C68.8199 75.2126 68.1725 77.0574 67.9547 79.0703L67.9481 79.1332L67.9162 79.4548L67.9027 79.5947L67.8768 79.8684C67.7935 80.7671 67.7377 81.5292 67.7094 82.1503L96 77.7298V80.2601L32 90.2601V87.7298L60.3225 83.3044L60.31 82.7363L60.3063 82.5761L60.3039 82.494L60.2996 82.3672C60.274 81.6784 60.2109 80.7954 60.1098 79.7253L60.0904 79.5224L60.0558 79.171C59.8525 77.1475 59.2148 75.2793 58.0982 73.8905C56.6873 72.1357 54.5265 71.1378 51.2652 71.118L51.1661 71.1177H49.5739L48.9006 69.6749C47.2825 66.2076 46.5 62.7545 46.5 59.291C46.5 54.9355 48.267 50.7238 51.3771 47.5977C51.4669 47.5075 51.5576 47.4183 51.6492 47.3303L32 44.2601V41.7299Z" fill="white"/>
<path fill-rule="evenodd" clip-rule="evenodd" d="M64 44.995C72.935 44.995 79 51.8723 79 59.291C79 62.2694 78.3502 65.3686 76.8339 68.6177C68.0419 68.6177 65.8717 74.9141 65.4614 78.8757L65.4351 79.1397C65.2961 80.5536 65.2156 81.6881 65.1937 82.5434L62.8123 82.9154L62.8117 82.8384C62.8027 81.9419 62.718 80.6843 62.5576 79.0656L62.5505 78.995C62.1715 75.0419 60.0469 68.6177 51.1661 68.6177C49.6498 65.3686 49 62.2694 49 59.291C49 51.8723 55.065 44.995 64 44.995Z" fill="#0168F9"/>
</g>
<path fill-rule="evenodd" clip-rule="evenodd" d="M259.928 69.0028H250.863C249.482 73.4472 245.295 76.5108 240.331 76.5108C233.123 76.5108 228.418 70.3404 228.418 63.9974C228.418 57.6975 232.993 51.4839 240.547 51.4839C245.554 51.4839 249.439 54.5475 250.82 58.992H259.885C258.59 50.0599 251.511 43.3717 240.288 43.3717C227.9 43.3717 219.612 52.0448 219.612 63.9974C219.612 75.9499 227.856 84.623 240.288 84.623C251.511 84.6662 258.59 78.0642 259.928 69.0028ZM190.864 44.0175H182.102V84.0175H190.821L207.181 58.4728V84.0175H215.943V44.0175H207.181L190.907 69.5623L190.864 44.0175ZM129.008 43.3717C119.252 43.3717 111.914 49.3264 112.001 59.6392H121.065C120.936 55.4968 123.569 51.527 129.008 51.527C133.152 51.527 135.785 54.2886 135.785 57.7838C135.785 61.4084 132.893 63.3933 128.274 65.6802C122.188 68.6144 118.562 69.9952 112.001 72.1959V84.0621H145.195V75.9499H124.303C126.895 74.8851 129.399 73.7036 131.744 72.5973C132.249 72.3587 132.748 72.1235 133.238 71.8938C140.576 68.3987 144.893 64.472 144.893 57.3954C144.849 48.8086 138.461 43.3717 129.008 43.3717ZM158.921 52.1323H177.698V44.0201H150.159V84.0201H158.921V52.1323Z" fill="#1A1A1A"/>
</svg>
