<svg width="198" height="26" viewBox="0 0 198 26" fill="none" xmlns="http://www.w3.org/2000/svg">
<path d="M4.66681 19.7574C3.45627 19.7574 2.20953 19.6228 1.07737 19.1509C0.746466 18.9879 0.469625 18.7365 0.279011 18.4257C0.0883975 18.115 -0.00816527 17.7577 0.000540811 17.3954C0.0473978 16.6928 0.212788 16.0025 0.49001 15.3527L0.816323 14.427C1.06715 13.7284 1.40702 13.0636 1.82789 12.4481C2.20856 11.9106 2.69706 11.4545 3.26367 11.1076C3.88998 10.7145 4.58803 10.4436 5.31944 10.3096C6.27261 10.1026 7.24739 10.0062 8.22362 10.0224H23.4951L23.8866 9.00097C23.8866 9.00097 23.8866 9.00097 23.8866 8.80947C23.8866 8.61796 23.8866 8.80947 23.8866 8.61796C23.8793 8.52528 23.8445 8.43669 23.7866 8.363C23.7286 8.28932 23.65 8.23373 23.5603 8.20302C23.1813 8.15381 22.7973 8.15381 22.4182 8.20302H7.66889L8.74572 5.36232H32.9255C34.2806 5.36231 35.6924 5.51194 36.9718 6.0326C37.3866 6.23088 37.7303 6.54746 37.9575 6.94062C38.1846 7.33378 38.2847 7.78505 38.2444 8.23494C38.2135 9.11126 38.0257 9.9755 37.6897 10.7884L34.4265 19.885L4.66681 19.7574ZM22.4509 12.7673H17.9477C17.389 12.7799 16.8369 12.8879 16.3162 13.0865C16.105 13.1877 15.9176 13.3308 15.7659 13.5066C15.6143 13.6824 15.5016 13.8872 15.4351 14.1079L14.8478 15.6718C14.8166 15.8407 14.8166 16.0137 14.8478 16.1825C14.8386 16.2497 14.8433 16.3179 14.8614 16.3833C14.8795 16.4487 14.9107 16.5099 14.9532 16.5634C14.9957 16.6168 15.0487 16.6615 15.109 16.6947C15.1693 16.728 15.2358 16.7492 15.3046 16.7571C15.6346 16.8472 15.9739 16.9007 16.3162 16.9166H19.5793C19.8278 16.9565 20.0813 16.9565 20.3298 16.9166C20.511 16.8698 20.6786 16.7824 20.8193 16.6613C21.0205 16.4671 21.1667 16.2252 21.2435 15.9591L21.6024 15.0654L22.4509 12.7673Z" fill="black"/>
<path d="M42.4175 19.7572C41.122 19.7572 39.7464 19.7009 38.5344 19.1508C38.1795 18.9284 37.8884 18.6212 37.6885 18.2582C37.4887 17.8952 37.3867 17.4883 37.3923 17.0761C37.3989 16.5082 37.5094 15.9461 37.7186 15.4164L39.7744 9.89453C40.233 8.4699 41.1628 7.23481 42.4175 6.38355C44.0525 5.47087 45.9184 5.13875 47.8017 5.13875H62.7142L64.672 -5.34058e-05H79.0624L71.7857 19.7572H42.4175ZM61.2784 9.19234C61.2671 9.10758 61.2671 9.02175 61.2784 8.93699C61.2918 8.8631 61.2918 8.78746 61.2784 8.71357C61.2784 8.29863 60.9195 8.07521 60.1363 8.07521H56.1879C55.791 8.06176 55.3974 8.14976 55.0458 8.33055C54.7203 8.52206 54.4856 8.83194 54.3932 9.19234L51.9132 15.959C51.8851 16.0527 51.8851 16.1524 51.9132 16.2462V16.4696C51.9132 16.8846 52.3048 17.0761 53.0227 17.0761H57.069C57.4763 17.0893 57.8804 17.0015 58.2437 16.8207C58.5014 16.5956 58.6739 16.292 58.7332 15.959L61.2784 9.19234Z" fill="black"/>
<path d="M79.9125 19.7572C78.5782 19.7572 77.2622 19.7015 76.062 19.1508C75.7038 18.9015 75.4208 18.5625 75.2428 18.1694C75.0648 17.7762 74.9984 17.3435 75.0504 16.9165C75.073 16.3503 75.183 15.7907 75.3767 15.2568L77.4651 9.73494C77.9849 8.42775 78.9089 7.3119 80.1083 6.54314C81.7433 5.63046 83.5157 5.29834 85.4924 5.29834H100.372L102.167 -5.34058e-05H116.557L109.215 19.7572H79.9125ZM98.7734 9.19234V8.93699C98.7868 8.8631 98.7868 8.78746 98.7734 8.71357C98.7734 8.29863 98.3818 8.07521 97.6313 8.07521H93.7155C93.3082 8.06199 92.9041 8.14983 92.5408 8.33055C92.3845 8.42716 92.2493 8.55303 92.1429 8.70092C92.0365 8.84882 91.961 9.01582 91.9208 9.19234L89.4082 15.959C89.3929 16.0541 89.3929 16.1511 89.4082 16.2462V16.4696C89.4082 16.8846 89.7671 17.0761 90.5177 17.0761H94.6292C95.0261 17.0895 95.4198 17.0015 95.7713 16.8207C96.0879 16.6198 96.3196 16.3137 96.4239 15.959L98.7734 9.19234Z" fill="black"/>
<path d="M110.685 19.7567L111.729 16.916L128.044 3.28696H117.113L118.386 0.0951614H146.481L145.404 3.06354L129.089 16.5329H140.314L139.106 19.7247L110.685 19.7567Z" fill="black"/>
<path d="M141.069 19.7572L146.485 5.2345H160.876L155.492 19.7572H141.069ZM147.105 3.79819L148.476 -5.34058e-05H162.736L161.333 3.83011L147.105 3.79819Z" fill="black"/>
<path d="M195.264 15.2564C194.745 16.5636 193.821 17.6795 192.621 18.4482C191.001 19.3687 189.178 19.693 187.27 19.693H172.325L170.269 25.1829H155.878L163.318 5.17032H192.686C193.904 5.17037 195.363 5.3343 196.537 5.96827C196.9 6.17689 197.2 6.47583 197.406 6.83465C197.612 7.19348 197.718 7.59937 197.712 8.01102C197.693 8.5806 197.571 9.14243 197.353 9.67076L195.264 15.2564ZM183.158 9.19199C183.188 9.09849 183.188 8.99822 183.158 8.90473V8.71322C183.158 8.29829 182.799 8.07486 182.049 8.07486H178.1C177.693 8.06164 177.289 8.14948 176.926 8.3302C176.609 8.53117 176.377 8.8372 176.273 9.19199L173.793 15.9586C173.763 16.0521 173.763 16.1524 173.793 16.2459V16.4693C173.793 16.8842 174.152 17.0757 174.902 17.0757H178.916C179.323 17.089 179.728 17.0011 180.091 16.8204C180.382 16.6134 180.58 16.3048 180.646 15.9586L183.158 9.19199Z" fill="black"/>
</svg>
