<?xml version="1.0" encoding="UTF-8" standalone="no"?>
<svg
   xmlns:dc="http://purl.org/dc/elements/1.1/"
   xmlns:cc="http://creativecommons.org/ns#"
   xmlns:rdf="http://www.w3.org/1999/02/22-rdf-syntax-ns#"
   xmlns:svg="http://www.w3.org/2000/svg"
   xmlns="http://www.w3.org/2000/svg"
   viewBox="0 0 793.70801 1122.52"
   height="1122.52"
   width="793.70801"
   xml:space="preserve"
   id="svg2"
   version="1.1"><metadata
     id="metadata8"><rdf:RDF><cc:Work
         rdf:about=""><dc:format>image/svg+xml</dc:format><dc:type
           rdf:resource="http://purl.org/dc/dcmitype/StillImage" /></cc:Work></rdf:RDF></metadata><defs
     id="defs6"><clipPath
       id="clipPath18"
       clipPathUnits="userSpaceOnUse"><path
         id="path16"
         d="M 0,841.89 H 595.281 V 0 H 0 Z" /></clipPath></defs><g
     transform="matrix(1.3333333,0,0,-1.3333333,0,1122.52)"
     id="g10"><g
       id="g12"><g
         clip-path="url(#clipPath18)"
         id="g14"><g
           transform="translate(342.457,547.7384)"
           id="g20"><path
             id="path22"
             style="fill:#e31f25;fill-opacity:1;fill-rule:nonzero;stroke:none"
             d="m 0,0 7.725,-6.862 c 11.146,-9.902 26.451,-13.684 40.926,-10.116 l 10.033,2.474 c 10.815,2.666 19.994,-8.227 15.531,-18.434 l -4.139,-9.468 c -5.972,-13.66 -4.841,-29.385 3.027,-42.049 l 5.452,-8.776 c 5.879,-9.463 -1.646,-21.559 -12.732,-20.469 l -10.283,1.012 c -14.837,1.458 -29.442,-4.477 -39.056,-15.873 l -6.662,-7.898 c -7.183,-8.515 -21.011,-5.097 -23.401,5.784 l -2.216,10.092 c -3.197,14.562 -13.355,26.618 -27.164,32.24 l -9.57,3.896 c -10.318,4.2 -11.341,18.408 -1.731,24.042 l 8.914,5.227 c 12.861,7.541 21.188,20.927 22.267,35.797 l 0.748,10.305 C -21.525,2.035 -8.328,7.398 0,0" /></g><g
           transform="translate(392.9951,473.1676)"
           id="g24"><path
             id="path26"
             style="fill:#ffee00;fill-opacity:1;fill-rule:nonzero;stroke:none"
             d="m 0,0 c 0,0 -0.834,-22.535 -22.32,-29.206 -23.69,-7.356 -39.71,10.861 -39.71,10.861 l -0.736,-0.453 c 0,0 15.959,-21.684 41.33,-14.025 23.34,7.046 22.207,32.979 22.207,32.979 z" /></g><g
           transform="translate(333.665,481.1105)"
           id="g28"><path
             id="path30"
             style="fill:#ffffff;fill-opacity:1;fill-rule:nonzero;stroke:none"
             d="m 0,0 h -3.05 v 7.475 h -8 V 0 h -3.075 v 17.5 h 3.075 v -7.15 h 8 V 17.5 H 0 Z" /></g><g
           transform="translate(347.4902,488.4606)"
           id="g32"><path
             id="path34"
             style="fill:#ffffff;fill-opacity:1;fill-rule:nonzero;stroke:none"
             d="M 0,0 -2.55,6.225 -5.125,0 Z m -8.125,-7.35 h -3.101 l 7.401,17.55 h 2.7 L 6.274,-7.35 H 3 L 1.175,-2.875 H -6.3 Z" /></g><g
           transform="translate(361.665,495.7853)"
           id="g36"><path
             id="path38"
             style="fill:#ffffff;fill-opacity:1;fill-rule:nonzero;stroke:none"
             d="m 0,0 -2.2,-0.05 v -5.375 c 0.884,-0.083 1.608,-0.125 2.175,-0.125 0.983,0 1.771,0.241 2.363,0.725 0.591,0.483 0.887,1.183 0.887,2.1 C 3.225,-0.908 2.15,0 0,0 m -2.2,-8.35 v -6.325 h -3.075 v 17.5 c 0.733,0 1.525,0.008 2.375,0.025 0.867,0.017 1.733,0.025 2.6,0.025 1.234,0 2.304,-0.154 3.212,-0.462 0.908,-0.309 1.613,-0.734 2.113,-1.275 0.5,-0.542 0.867,-1.134 1.1,-1.775 0.233,-0.642 0.35,-1.346 0.35,-2.113 0,-1.583 -0.567,-2.925 -1.7,-4.025 -1.117,-1.1 -2.683,-1.65 -4.7,-1.65 -1.016,0 -1.775,0.025 -2.275,0.075" /></g><g
           transform="translate(376.9648,495.7853)"
           id="g40"><path
             id="path42"
             style="fill:#ffffff;fill-opacity:1;fill-rule:nonzero;stroke:none"
             d="m 0,0 -2.2,-0.05 v -5.375 c 0.884,-0.083 1.608,-0.125 2.175,-0.125 0.983,0 1.771,0.241 2.363,0.725 0.591,0.483 0.887,1.183 0.887,2.1 C 3.225,-0.908 2.15,0 0,0 m -2.2,-8.35 v -6.325 h -3.075 v 17.5 c 0.733,0 1.525,0.008 2.375,0.025 0.867,0.017 1.733,0.025 2.6,0.025 1.234,0 2.304,-0.154 3.212,-0.462 0.908,-0.309 1.613,-0.734 2.113,-1.275 0.5,-0.542 0.867,-1.134 1.1,-1.775 0.233,-0.642 0.35,-1.346 0.35,-2.113 0,-1.583 -0.567,-2.925 -1.7,-4.025 -1.117,-1.1 -2.683,-1.65 -4.7,-1.65 -1.016,0 -1.775,0.025 -2.275,0.075" /></g><g
           transform="translate(396.2402,498.6105)"
           id="g44"><path
             id="path46"
             style="fill:#ffffff;fill-opacity:1;fill-rule:nonzero;stroke:none"
             d="m 0,0 h 3.325 l -6.224,-10.2 v -7.3 h -3.076 v 7.3 L -12.149,0 h 3.5 L -4.3,-7.325 Z" /></g><g
           transform="translate(331.6904,463.1105)"
           id="g48"><path
             id="path50"
             style="fill:#ffffff;fill-opacity:1;fill-rule:nonzero;stroke:none"
             d="m 0,0 1.175,-2.3 c -0.55,-0.584 -1.337,-1.058 -2.362,-1.426 -1.026,-0.366 -2.105,-0.549 -3.238,-0.549 -2.667,0 -4.842,0.825 -6.525,2.475 -1.667,1.65 -2.5,3.833 -2.5,6.55 0,2.6 0.792,4.758 2.375,6.475 1.566,1.7 3.759,2.549 6.575,2.549 2.233,0 4.008,-0.591 5.325,-1.774 L -0.55,9.725 c -1.183,0.783 -2.5,1.174 -3.95,1.174 -1.667,0 -3.033,-0.558 -4.1,-1.674 -1.067,-1.117 -1.6,-2.609 -1.6,-4.475 0,-1.834 0.558,-3.317 1.675,-4.45 1.133,-1.134 2.591,-1.7 4.375,-1.7 1.533,0 2.917,0.466 4.15,1.4" /></g><g
           transform="translate(341.0908,473.7853)"
           id="g52"><path
             id="path54"
             style="fill:#ffffff;fill-opacity:1;fill-rule:nonzero;stroke:none"
             d="M 0,0 C -0.084,0 -0.217,-0.004 -0.4,-0.013 -0.584,-0.021 -0.842,-0.029 -1.176,-0.037 -1.509,-0.046 -1.817,-0.05 -2.101,-0.05 v -5.2 h 2 c 0.984,0 1.788,0.241 2.414,0.725 C 2.938,-4.042 3.25,-3.384 3.25,-2.55 3.25,-0.85 2.166,0 0,0 m -2.101,-8.125 v -6.55 h -3.075 v 17.5 c 0.867,0 1.809,0.008 2.825,0.025 1.017,0.016 1.851,0.025 2.5,0.025 4.234,0 6.351,-1.8 6.351,-5.4 0,-1.333 -0.342,-2.434 -1.025,-3.3 -0.684,-0.833 -1.467,-1.4 -2.35,-1.7 L 8.6,-14.675 H 4.875 l -4.825,6.55 z" /></g><path
           id="path56"
           style="fill:#ffffff;fill-opacity:1;fill-rule:nonzero;stroke:none"
           d="m 355.815,459.11 h -3.075 v 17.5 h 3.075 z" /><g
           transform="translate(368.0654,463.7599)"
           id="g58"><path
             id="path60"
             style="fill:#ffffff;fill-opacity:1;fill-rule:nonzero;stroke:none"
             d="m 0,0 c 0,0.533 -0.196,1.004 -0.588,1.413 -0.391,0.408 -0.879,0.741 -1.463,1 -0.583,0.258 -1.22,0.558 -1.912,0.9 -0.691,0.341 -1.329,0.7 -1.912,1.075 -0.584,0.375 -1.071,0.9 -1.463,1.575 -0.391,0.675 -0.588,1.454 -0.588,2.338 0,1.349 0.492,2.491 1.476,3.425 1.016,0.932 2.341,1.399 3.974,1.399 2.217,0 3.884,-0.625 5,-1.875 L 0.875,8.95 c -0.884,0.866 -1.917,1.3 -3.101,1.3 -0.75,0 -1.345,-0.175 -1.787,-0.524 -0.442,-0.351 -0.663,-0.818 -0.663,-1.401 0,-0.3 0.059,-0.579 0.176,-0.837 0.116,-0.259 0.245,-0.471 0.387,-0.637 0.141,-0.167 0.375,-0.351 0.7,-0.55 0.325,-0.2 0.583,-0.347 0.775,-0.438 C -2.446,5.771 -2.125,5.625 -1.676,5.426 -1.226,5.226 -0.909,5.084 -0.726,5 0.008,4.667 0.649,4.316 1.199,3.95 1.816,3.584 2.313,3.059 2.688,2.375 3.063,1.691 3.25,0.908 3.25,0.025 3.25,-1.441 2.691,-2.633 1.574,-3.55 0.458,-4.467 -0.934,-4.925 -2.601,-4.925 c -1.167,0 -2.325,0.242 -3.474,0.726 -1.101,0.5 -1.851,1.175 -2.25,2.024 l 1.75,2.101 c 0.466,-0.617 1.07,-1.101 1.812,-1.45 0.742,-0.351 1.479,-0.526 2.212,-0.526 0.767,0 1.384,0.184 1.851,0.55 C -0.234,-1.133 0,-0.633 0,0" /></g><g
           transform="translate(380.1396,473.7853)"
           id="g62"><path
             id="path64"
             style="fill:#ffffff;fill-opacity:1;fill-rule:nonzero;stroke:none"
             d="m 0,0 -2.2,-0.05 v -5.375 c 0.884,-0.084 1.608,-0.125 2.175,-0.125 0.983,0 1.771,0.241 2.363,0.725 0.591,0.483 0.887,1.183 0.887,2.1 C 3.225,-0.908 2.15,0 0,0 m -2.2,-8.35 v -6.325 h -3.075 v 17.5 c 0.733,0 1.525,0.008 2.375,0.025 0.867,0.016 1.733,0.025 2.6,0.025 1.234,0 2.304,-0.154 3.212,-0.463 0.908,-0.308 1.613,-0.733 2.113,-1.274 0.5,-0.542 0.867,-1.134 1.1,-1.776 0.233,-0.641 0.35,-1.345 0.35,-2.112 0,-1.584 -0.567,-2.925 -1.7,-4.025 -1.117,-1.1 -2.683,-1.65 -4.7,-1.65 -1.016,0 -1.775,0.025 -2.275,0.075" /></g></g></g></g></svg>