<?xml version="1.0" encoding="UTF-8" standalone="no"?>
<!-- Created with Inkscape (http://www.inkscape.org/) -->

<svg
   version="1.1"
   id="svg2"
   xml:space="preserve"
   width="573.28668"
   height="201.75467"
   viewBox="0 0 573.28668 201.75466"
   sodipodi:docname="e785bce3da35a3002373dcf4b91309fc.eps"
   xmlns:inkscape="http://www.inkscape.org/namespaces/inkscape"
   xmlns:sodipodi="http://sodipodi.sourceforge.net/DTD/sodipodi-0.dtd"
   xmlns="http://www.w3.org/2000/svg"
   xmlns:svg="http://www.w3.org/2000/svg"><defs
     id="defs6" /><sodipodi:namedview
     id="namedview4"
     pagecolor="#ffffff"
     bordercolor="#666666"
     borderopacity="1.0"
     inkscape:pageshadow="2"
     inkscape:pageopacity="0.0"
     inkscape:pagecheckerboard="0" /><g
     id="g8"
     inkscape:groupmode="layer"
     inkscape:label="ink_ext_XXXXXX"
     transform="matrix(1.3333333,0,0,-1.3333333,0,201.75466)"><g
       id="g10"
       transform="scale(0.1)"><path
         d="M 1338.97,512.059 712.59,59.8711 V 502.379 l 319.92,230.992 306.46,-221.312"
         style="fill:#f04335;fill-opacity:1;fill-rule:nonzero;stroke:none"
         id="path12" /><path
         d="M 675.035,1453.17 V 1010.66 L 355.113,779.668 48.6563,1000.98 675.035,1453.17"
         style="fill:#f3b72a;fill-opacity:1;fill-rule:nonzero;stroke:none"
         id="path14" /><path
         d="M 675.035,502.379 V 59.8711 L 37.793,519.977 V 962.363 L 675.035,502.379"
         style="fill:#1a503d;fill-opacity:1;fill-rule:nonzero;stroke:none"
         id="path16" /><path
         d="m 1811.51,535.973 c -39.45,21.726 -70.39,51.836 -92.83,90.34 -22.44,38.496 -33.65,81.601 -33.65,129.316 0,47.715 11.21,90.812 33.65,129.316 22.44,38.496 53.5,68.614 93.18,90.348 39.68,21.719 84.08,32.597 133.21,32.597 36.85,0 70.86,-6.15 102.05,-18.429 31.17,-12.289 57.61,-30.234 79.35,-53.852 l -33.3,-33.3 c -38.75,39.203 -87.63,58.808 -146.68,58.808 -39.22,0 -74.88,-8.972 -106.99,-26.926 -32.13,-17.957 -57.29,-42.511 -75.47,-73.691 -18.19,-31.18 -27.28,-66.141 -27.28,-104.871 0,-38.738 9.09,-73.691 27.28,-104.863 18.18,-31.184 43.34,-55.75 75.47,-73.692 32.11,-17.961 67.77,-26.933 106.99,-26.933 59.52,0 108.42,19.843 146.68,59.519 l 33.3,-33.301 c -21.74,-23.621 -48.3,-41.687 -79.72,-54.207 -31.42,-12.523 -65.54,-18.773 -102.39,-18.773 -49.13,0 -93.41,10.863 -132.85,32.594"
         style="fill:#28292a;fill-opacity:1;fill-rule:nonzero;stroke:none"
         id="path18" /><path
         d="m 2454.9,563.258 c 20.54,12.039 36.6,28.926 48.17,50.66 11.57,21.723 17.36,46.289 17.36,73.691 0,27.395 -5.66,51.489 -17,72.278 -11.34,20.781 -27.28,36.953 -47.83,48.535 -20.55,11.57 -44.05,17.363 -70.5,17.363 -26.46,0 -49.96,-5.793 -70.51,-17.363 -20.54,-11.582 -36.61,-27.754 -48.18,-48.535 -11.58,-20.789 -17.36,-44.883 -17.36,-72.278 0,-27.402 5.78,-51.968 17.36,-73.691 11.57,-21.734 27.74,-38.621 48.53,-50.66 20.79,-12.055 44.17,-18.067 70.16,-18.067 25.97,0 49.24,6.012 69.8,18.067 z m 30.46,284.844 c 27.16,-15.356 48.3,-36.848 63.41,-64.485 15.12,-27.629 22.68,-59.16 22.68,-94.59 0,-36.386 -7.91,-68.625 -23.73,-96.718 -15.84,-28.118 -37.91,-49.961 -66.26,-65.547 -28.34,-15.582 -60.94,-23.383 -97.79,-23.383 -61.88,0 -109.82,21.723 -143.83,65.187 -34.02,43.461 -51.02,103.45 -51.02,179.985 0,79.82 15.24,141.004 45.7,183.519 30.47,42.512 78.06,71.32 142.78,86.45 l 167.22,38.26 8.51,-46.06 -157.3,-36.138 c -53.39,-11.812 -92.59,-32.719 -117.63,-62.707 -25.04,-30.008 -38.74,-74.293 -41.1,-132.855 15.11,28.804 36.14,51.367 63.07,67.664 26.93,16.3 57.85,24.449 92.82,24.449 34.48,0 65.3,-7.688 92.47,-23.031"
         style="fill:#28292a;fill-opacity:1;fill-rule:nonzero;stroke:none"
         id="path20" /><path
         d="m 2904.13,566.801 c 21.01,12.043 37.44,29.16 49.24,51.367 11.81,22.195 17.72,47.473 17.72,75.82 0,28.34 -5.91,53.606 -17.72,75.821 -11.8,22.199 -28.23,39.316 -49.24,51.367 -21.02,12.043 -44.76,18.066 -71.22,18.066 -26.45,0 -50.19,-6.023 -71.21,-18.066 -21.02,-12.051 -37.55,-29.168 -49.6,-51.367 -12.04,-22.215 -18.06,-47.481 -18.06,-75.821 0,-28.347 6.02,-53.625 18.06,-75.82 12.05,-22.207 28.58,-39.324 49.6,-51.367 21.02,-12.051 44.76,-18.074 71.21,-18.074 26.46,0 50.2,6.023 71.22,18.074 z m -168.29,-38.274 c -28.82,16.301 -51.49,38.86 -68.02,67.676 -16.54,28.813 -24.8,61.399 -24.8,97.785 0,36.367 8.26,68.965 24.8,97.785 16.53,28.805 39.2,51.25 68.02,67.313 28.81,16.051 61.17,24.094 97.07,24.094 35.9,0 68.26,-8.043 97.08,-24.094 28.81,-16.063 51.37,-38.508 67.67,-67.313 16.3,-28.82 24.44,-61.418 24.44,-97.785 0,-36.386 -8.14,-68.972 -24.44,-97.785 -16.3,-28.816 -38.86,-51.375 -67.67,-67.676 -28.82,-16.289 -61.18,-24.437 -97.08,-24.437 -35.9,0 -68.26,8.148 -97.07,24.437"
         style="fill:#28292a;fill-opacity:1;fill-rule:nonzero;stroke:none"
         id="path22" /><path
         d="m 3389.14,566.801 c 21.25,12.043 37.9,29.16 49.95,51.367 12.05,22.195 18.07,47.473 18.07,75.82 0,28.34 -6.02,53.496 -18.07,75.457 -12.05,21.973 -28.7,39.082 -49.95,51.379 -21.26,12.278 -44.88,18.418 -70.86,18.418 -26.46,0 -50.19,-6.14 -71.21,-18.418 -21.02,-12.297 -37.56,-29.406 -49.6,-51.379 -12.05,-21.961 -18.07,-47.117 -18.07,-75.457 0,-28.347 6.02,-53.625 18.07,-75.82 12.04,-22.207 28.58,-39.324 49.6,-51.367 21.02,-12.051 44.75,-18.074 71.21,-18.074 25.98,0 49.6,6.023 70.86,18.074 z m 27.63,292.637 c 28.35,-15.829 50.55,-38.157 66.61,-66.961 16.06,-28.821 24.09,-61.645 24.09,-98.489 0,-37.324 -8.03,-70.39 -24.09,-99.199 -16.06,-28.816 -38.15,-51.141 -66.25,-66.965 -28.11,-15.824 -59.87,-23.734 -95.3,-23.734 -30.24,0 -57.52,6.262 -81.85,18.773 -24.33,12.512 -44.28,30.825 -59.87,54.914 V 370.172 H 3129.8 V 880.34 h 48.18 v -73.688 c 15.12,24.551 35.08,43.457 59.87,56.68 24.81,13.227 52.8,19.848 83.98,19.848 34.95,0 66.6,-7.922 94.94,-23.742"
         style="fill:#28292a;fill-opacity:1;fill-rule:nonzero;stroke:none"
         id="path24" /><path
         d="m 3751.21,673.441 h -85.03 V 507.629 h -50.31 V 880.34 h 50.31 V 716.664 h 85.75 l 131.08,163.676 h 54.56 L 3790.89,699.652 3948.2,507.629 h -59.53 l -137.46,165.812"
         style="fill:#28292a;fill-opacity:1;fill-rule:nonzero;stroke:none"
         id="path26" /><path
         d="m 4204,563.258 c 20.3,12.984 35.43,31.758 45.35,56.324 v 60.941 h -116.92 c -63.77,0 -95.66,-22.207 -95.66,-66.605 0,-21.734 8.26,-38.863 24.81,-51.375 16.52,-12.52 39.67,-18.777 69.43,-18.777 28.35,0 52.67,6.492 72.99,19.492 z m 56.69,283.426 c 25.96,-24.336 38.96,-60.352 38.96,-108.059 V 507.629 h -48.18 v 58.105 c -11.34,-19.375 -27.99,-34.492 -49.95,-45.347 -21.97,-10.867 -48.08,-16.297 -78.3,-16.297 -41.58,0 -74.64,9.918 -99.2,29.762 -24.57,19.836 -36.85,46.054 -36.85,78.652 0,31.641 11.45,57.148 34.37,76.523 22.91,19.368 59.4,29.051 109.47,29.051 h 118.34 v 22.68 c 0,32.117 -8.99,56.558 -26.93,73.328 -17.95,16.769 -44.17,25.156 -78.66,25.156 -23.62,0 -46.3,-3.894 -68.01,-11.687 -21.74,-7.793 -40.4,-18.547 -55.98,-32.239 l -22.68,37.547 c 18.89,16.055 41.57,28.457 68.03,37.203 26.45,8.739 54.32,13.114 83.6,13.114 48.66,0 85.98,-12.168 111.97,-36.496"
         style="fill:#28292a;fill-opacity:1;fill-rule:nonzero;stroke:none"
         id="path28" /><path
         d="m 1781.69,370.398 c 11.99,-6.507 21.43,-15.527 28.33,-27.046 6.89,-11.512 10.33,-24.454 10.33,-38.801 0,-14.36 -3.44,-27.332 -10.33,-38.949 -6.9,-11.614 -16.34,-20.723 -28.33,-27.332 -11.99,-6.61 -25.45,-9.911 -40.36,-9.911 -12.46,0 -23.89,1.93 -34.27,5.813 -10.39,3.867 -19.17,9.476 -26.34,16.84 l 11.9,11.898 c 12.64,-11.898 28.6,-17.84 47.86,-17.84 10.76,0 20.53,2.258 29.32,6.789 8.78,4.539 15.95,10.86 21.52,18.993 5.57,8.109 8.82,17.179 9.77,27.187 h -79.59 v 15.289 h 79.31 c -2.08,14.91 -8.69,27.051 -19.83,36.402 -11.14,9.34 -24.64,14.02 -40.5,14.02 -19.26,0 -35.22,-5.949 -47.86,-17.84 l -11.9,11.61 c 7.17,7.359 15.95,12.98 26.34,16.839 10.38,3.871 21.81,5.813 34.27,5.813 14.91,0 28.37,-3.262 40.36,-9.774"
         style="fill:#28292a;fill-opacity:1;fill-rule:nonzero;stroke:none"
         id="path30" /><path
         d="m 1915.24,296.34 h -33.99 v -66.281 h -20.11 v 148.98 h 20.11 v -65.43 h 34.27 l 52.4,65.43 h 21.81 l -58.63,-72.219 62.88,-76.761 h -23.79 l -54.95,66.281"
         style="fill:#28292a;fill-opacity:1;fill-rule:nonzero;stroke:none"
         id="path32" /><path
         d="m 2108.84,253.711 c 8.39,4.809 14.96,11.648 19.68,20.539 4.71,8.859 7.08,18.969 7.08,30.301 0,11.328 -2.37,21.429 -7.08,30.301 -4.72,8.878 -11.29,15.726 -19.68,20.539 -8.42,4.808 -17.89,7.23 -28.48,7.23 -10.57,0 -20.06,-2.422 -28.46,-7.23 -8.4,-4.813 -15.02,-11.661 -19.82,-20.539 -4.82,-8.872 -7.23,-18.973 -7.23,-30.301 0,-11.332 2.41,-21.442 7.23,-30.301 4.8,-8.891 11.42,-15.73 19.82,-20.539 8.4,-4.813 17.89,-7.231 28.46,-7.231 10.59,0 20.06,2.418 28.48,7.231 z m -67.27,-15.289 c -11.53,6.508 -20.59,15.519 -27.2,27.039 -6.61,11.519 -9.91,24.551 -9.91,39.09 0,14.539 3.3,27.57 9.91,39.078 6.61,11.531 15.67,20.492 27.2,26.922 11.5,6.41 24.45,9.621 38.79,9.621 14.35,0 27.28,-3.211 38.81,-9.621 11.52,-6.43 20.53,-15.391 27.05,-26.922 6.53,-11.508 9.77,-24.539 9.77,-39.078 0,-14.539 -3.24,-27.571 -9.77,-39.09 -6.52,-11.52 -15.53,-20.531 -27.05,-27.039 -11.53,-6.524 -24.46,-9.781 -38.81,-9.781 -14.34,0 -27.29,3.257 -38.79,9.781"
         style="fill:#28292a;fill-opacity:1;fill-rule:nonzero;stroke:none"
         id="path34" /><path
         d="m 2352.83,247.621 v -54.949 h -18.97 v 37.387 h -136.24 v 148.98 h 20.12 V 247.621 h 90.92 v 131.418 h 20.1 V 247.621 h 24.07"
         style="fill:#28292a;fill-opacity:1;fill-rule:nonzero;stroke:none"
         id="path36" /><path
         d="m 2412.17,349.16 c -9.73,-9.16 -15.25,-21.101 -16.57,-35.832 h 105.65 c -1.33,14.731 -6.84,26.672 -16.57,35.832 -9.73,9.16 -21.85,13.738 -36.4,13.738 -14.35,0 -26.38,-4.578 -36.11,-13.738 z m 108.06,-50.84 H 2395.6 c 1.13,-15.492 7.09,-28 17.85,-37.531 10.76,-9.539 24.36,-14.309 40.78,-14.309 9.25,0 17.75,1.649 25.5,4.961 7.73,3.309 14.44,8.168 20.11,14.579 L 2511.17,253 c -6.62,-7.93 -14.88,-13.98 -24.79,-18.129 -9.91,-4.152 -20.82,-6.23 -32.71,-6.23 -15.3,0 -28.85,3.257 -40.65,9.781 -11.8,6.508 -21.01,15.519 -27.62,27.039 -6.61,11.519 -9.91,24.551 -9.91,39.09 0,14.539 3.17,27.57 9.49,39.078 6.32,11.531 15.01,20.492 26.06,26.922 11.04,6.41 23.46,9.621 37.24,9.621 13.78,0 26.16,-3.211 37.11,-9.621 10.95,-6.43 19.54,-15.352 25.78,-26.77 6.23,-11.429 9.34,-24.5 9.34,-39.23 l -0.28,-6.231"
         style="fill:#28292a;fill-opacity:1;fill-rule:nonzero;stroke:none"
         id="path38" /><path
         d="m 2563.56,379.039 h 20.11 v -65.988 h 93.75 v 65.988 h 20.11 v -148.98 h -20.11 v 65.711 h -93.75 v -65.711 h -20.11 v 148.98"
         style="fill:#28292a;fill-opacity:1;fill-rule:nonzero;stroke:none"
         id="path40" /><path
         d="m 2858.13,361.199 h -56.37 v -131.14 h -20.11 v 131.14 h -56.36 v 17.84 h 132.84 v -17.84"
         style="fill:#28292a;fill-opacity:1;fill-rule:nonzero;stroke:none"
         id="path42" /><path
         d="m 2989.55,253.711 c 8.5,4.809 15.15,11.648 19.96,20.539 4.83,8.859 7.23,18.969 7.23,30.301 0,11.328 -2.4,21.39 -7.23,30.168 -4.81,8.781 -11.46,15.621 -19.96,20.531 -8.49,4.91 -17.94,7.371 -28.33,7.371 -10.57,0 -20.05,-2.461 -28.46,-7.371 -8.4,-4.91 -15.01,-11.75 -19.83,-20.531 -4.81,-8.778 -7.21,-18.84 -7.21,-30.168 0,-11.332 2.4,-21.442 7.21,-30.301 4.82,-8.891 11.43,-15.73 19.83,-20.539 8.41,-4.813 17.89,-7.231 28.46,-7.231 10.39,0 19.84,2.418 28.33,7.231 z m 11.05,116.969 c 11.33,-6.328 20.2,-15.239 26.62,-26.758 6.42,-11.524 9.63,-24.641 9.63,-39.371 0,-14.922 -3.21,-28.129 -9.63,-39.66 -6.42,-11.512 -15.24,-20.442 -26.48,-26.762 -11.23,-6.32 -23.93,-9.488 -38.1,-9.488 -12.08,0 -22.99,2.5 -32.72,7.507 -9.72,5 -17.69,12.321 -23.92,21.942 v -82.981 h -20.12 v 203.93 h 19.27 V 349.59 c 6.03,9.808 14.01,17.359 23.93,22.66 9.92,5.281 21.1,7.922 33.56,7.922 13.97,0 26.63,-3.16 37.96,-9.492"
         style="fill:#28292a;fill-opacity:1;fill-rule:nonzero;stroke:none"
         id="path44" /><path
         d="m 675.035,1010.66 v 442.51 L 48.6563,1000.98 355.113,779.668 Z m 0,-950.7889 V 502.379 L 37.793,962.363 V 519.977 Z M 693.813,535.207 1000.39,756.52 693.813,977.832 387.234,756.52 Z M 712.59,59.8711 1338.97,512.059 1032.51,733.371 712.59,502.379 Z M 1352.32,548.789 V 992.238 L 712.59,1453.17 v -442.51 z m 37.43,461.871 V 502.379 L 693.813,0 0,500.84 v 511.36 l 693.813,500.96 695.937,-502.5"
         style="fill:#28292a;fill-opacity:1;fill-rule:nonzero;stroke:none"
         id="path46" /></g></g></svg>
